<?xml version="1.0" standalone="no"?>
<!DOCTYPE svg PUBLIC "-//W3C//DTD SVG 1.1//EN" "http://www.w3.org/Graphics/SVG/1.1/DTD/svg11.dtd" >
<svg xmlns="http://www.w3.org/2000/svg">
<metadata></metadata>
<defs>
<font id="sequibold" horiz-adv-x="1054" >
<font-face units-per-em="2048" ascent="1638" descent="-410" />
<missing-glyph horiz-adv-x="716" />
<glyph horiz-adv-x="2048" />
<glyph horiz-adv-x="2048" />
<glyph unicode="&#xd;" horiz-adv-x="2048" />
<glyph unicode=" "  horiz-adv-x="716" />
<glyph unicode="&#x09;" horiz-adv-x="716" />
<glyph unicode="&#xa0;" horiz-adv-x="716" />
<glyph unicode="!" horiz-adv-x="354" d="M0 59q0 11 4 27q3 14 12 25q11 20 39 30q15 9 35 9q7 0 27 -5q12 -3 24 -12q19 -11 33 -39q6 -15 6 -35q0 -10 -4 -26q-3 -13 -12 -25q-11 -19 -39 -33q-15 -6 -35 -6q-11 0 -27 4q-4 1 -24 11q-19 14 -33 41q-6 15 -6 34zM29 281v1265q0 26 17.5 44t43.5 18t44 -18 t18 -44v-1265q0 -26 -18 -44t-44 -18t-43.5 18t-17.5 44z" />
<glyph unicode="&#x22;" horiz-adv-x="462" d="M0 1380v166q0 26 17.5 44t43.5 18t44 -18t18 -44v-166q0 -26 -18 -43.5t-44 -17.5t-43.5 17.5t-17.5 43.5zM166 1380v166q0 26 18 44t43 18q26 0 44 -18t18 -44v-166q0 -26 -18 -43.5t-44 -17.5q-25 0 -43 17.5t-18 43.5z" />
<glyph unicode="#" horiz-adv-x="1447" d="M0 592q0 25 17.5 43t43.5 18h265l71 271h-336q-26 0 -43.5 18t-17.5 43q0 26 17.5 44t43.5 18h367l135 516q6 25 27.5 37t46.5 6t38 -28.5t7 -47.5l-127 -483h268l133 516q6 24 28.5 36.5t47.5 6.5q24 -6 36.5 -28.5t6.5 -47.5l-125 -483h262q26 0 44 -18t18 -44 q0 -25 -18 -43t-44 -18h-294l-70 -271h364q26 0 44 -18t18 -43q0 -26 -18 -44t-44 -18h-397l-133 -516q-6 -24 -28.5 -36.5t-47.5 -6.5t-37 28t-6 48l125 483h-266l-135 -516q-6 -25 -27.5 -37t-46.5 -6t-38 28t-7 48l127 483h-234q-26 0 -43.5 18t-17.5 44zM453 653h268 l70 271h-267z" />
<glyph unicode="$" d="M0 399q0 26 17.5 44t43.5 20q25 0 43.5 -18t18.5 -44q0 -78 39 -145q40 -73 104 -111q46 -31 96 -43h5v641l-23 7q-6 0 -10 2q-112 27 -193 102t-116 176q-25 70 -25 144q0 52 12 104q12 44 41 104q26 45 66 88q75 78 178 113q70 25 143 25q47 0 107 -13 q106 -26 192 -102q80 -77 117 -174q25 -80 25 -141q0 -25 -18 -43.5t-44 -18.5q-25 0 -43 17.5t-18 42.5q0 77 -39 147q-40 69 -105 111q-49 30 -96 41q-5 1 -14.5 3t-14.5 3v-641l58 -13q112 -27 192 -104q84 -77 117 -176q25 -70 25 -141q0 -47 -13 -107q-13 -47 -41 -102 q-24 -43 -65 -88q-78 -81 -178 -115q-47 -15 -95 -21v-178q0 -26 -17.5 -43.5t-43.5 -17.5q-25 0 -43 17.5t-18 43.5v180q-15 3 -33 9q-112 27 -193 102q-79 73 -116 174q-25 80 -25 139zM123 1174q0 -79 37 -148q38 -69 104 -113q39 -25 82 -36q3 -3 6 -3l15 -4v607 q-33 -7 -78 -29q-71 -39 -113 -102q-31 -46 -43 -99q-10 -31 -10 -73zM489 96q46 8 103 35q71 39 113 102q31 45 43 97q10 31 10 76q0 75 -37 147q-37 67 -105 113q-53 31 -98 41l-29 8v-619z" />
<glyph unicode="%" d="M0 1364q0 32 10 74q9 27 31 63q43 61 109 88q46 19 94 19q29 0 71 -11q40 -14 64 -30q61 -43 88 -109q20 -48 20 -94q0 -38 -12 -72q-9 -35 -31 -63q-43 -61 -106 -88q-51 -21 -94 -21q-33 0 -74 13q-34 9 -64 30q-61 42 -88 107q-18 44 -18 94zM3 11q-8 24 3 46 l758 1499q12 23 36 31t46 -4q23 -10 31 -35t-3 -47l-757 -1499q-12 -22 -36.5 -29.5t-47.5 2.5q-22 12 -30 36zM123 1364q0 -20 6 -35q2 -13 14 -33q21 -32 54 -43q23 -10 47 -10q20 0 35 6q16 5 32 15q27 21 43 53q11 26 11 47q0 16 -7 37q-9 23 -14 31q-25 32 -53 43 q-23 10 -47 10q-19 0 -37 -6q-9 -2 -31 -15q-32 -21 -43 -53q-10 -23 -10 -47zM393 213q0 35 13 72q10 37 30 63q42 61 107 88q46 19 94 19q40 0 74 -11q32 -8 63 -30q61 -42 88 -107q19 -46 19 -94q0 -28 -11 -74q-11 -31 -30 -63q-43 -61 -109 -88q-46 -19 -94 -19 q-30 0 -72 11q-38 13 -63 30q-61 42 -88 107q-21 54 -21 96zM516 213q0 -19 6 -37q7 -18 15 -31q21 -30 53 -43q23 -10 47 -10q19 0 37 6q9 2 31 15q32 21 43 53q10 23 10 47q0 20 -6 35q-2 11 -15 33q-19 28 -53 43q-19 8 -47 8q-25 0 -35 -4q-20 -7 -33 -17 q-31 -21 -43 -51q-10 -23 -10 -47z" />
<glyph unicode="'" horiz-adv-x="296" d="M0 1380v166q0 26 17.5 44t43.5 18t44 -18t18 -44v-166q0 -26 -18 -43.5t-44 -17.5t-43.5 17.5t-17.5 43.5z" />
<glyph unicode="(" horiz-adv-x="661" d="M0 670q0 78 12 161q13 87 33 170q49 182 127 332q60 110 127 183q42 45 88 79q22 15 46.5 11.5t39.5 -23.5q15 -22 11 -47.5t-25 -38.5q-34 -25 -76 -74q-33 -36 -72 -98q-65 -100 -114 -248q-34 -100 -50 -182q-24 -120 -24 -225q0 -59 10 -144q13 -81 33 -155 q44 -174 117 -305q57 -102 108 -158q30 -33 70 -64q20 -13 24 -38.5t-10 -47.5q-15 -20 -40.5 -23.5t-45.5 11.5q-50 36 -98 90q-45 50 -84 115q-76 122 -127 274q-25 68 -53 195q-27 148 -27 250z" />
<glyph unicode=")" horiz-adv-x="659" d="M1 -195q4 25 24 39q37 27 77 74q39 42 74 98q66 105 115 248q37 122 47 180q24 120 24 226q0 81 -10 145q-9 77 -30 156q-42 164 -117 305q-55 99 -109 158q-36 39 -69 63q-20 13 -24.5 38.5t9.5 47.5q15 20 40.5 23.5t45.5 -11.5q48 -32 99 -90q47 -53 84 -114 q75 -123 127 -275q38 -127 51 -196q26 -124 26 -250q0 -68 -10 -160q-10 -69 -35 -172q-48 -186 -127 -330q-59 -108 -127 -182q-45 -48 -88 -80q-22 -15 -47.5 -11.5t-38.5 23.5q-15 22 -11 47z" />
<glyph unicode="*" d="M0 1182q0 26 17.5 43.5t43.5 17.5h193l-135 137q-19 19 -19 44t19 44q17 17 42 17t44 -17l157 -159v237q0 25 18.5 43.5t43.5 18.5q26 0 43.5 -18.5t17.5 -43.5v-223l168 166q19 19 44 19t42 -19q19 -19 19 -44t-19 -42l-157 -160h237q25 0 43.5 -17.5t18.5 -43.5 q0 -25 -18.5 -43.5t-43.5 -18.5h-268l190 -188q17 -19 17 -44t-17 -42q-19 -19 -44 -19t-44 19l-168 166v-224q0 -26 -17.5 -43.5t-43.5 -17.5q-25 0 -43.5 17.5t-18.5 43.5v238l-157 -160q-19 -17 -44 -17t-42 17q-19 19 -19 44t19 44l166 166h-224q-26 0 -43.5 18.5 t-17.5 43.5z" />
<glyph unicode="+" d="M0 788q0 26 17.5 44t43.5 18h301v332q0 26 18.5 43.5t43.5 17.5q26 0 43.5 -17.5t17.5 -43.5v-332h334q26 0 44 -18t18 -44t-18 -43.5t-44 -17.5h-334v-334q0 -25 -17.5 -43t-43.5 -18q-25 0 -43.5 18t-18.5 43v334h-301q-26 0 -43.5 17.5t-17.5 43.5z" />
<glyph unicode="," horiz-adv-x="466" d="M6 -182l166 403q10 23 33.5 32.5t48.5 0.5q23 -9 32.5 -32.5t0.5 -47.5l-166 -403q-10 -23 -33.5 -32.5t-46.5 -0.5q-24 10 -34 33t-1 47z" />
<glyph unicode="-" horiz-adv-x="659" d="M0 788q0 26 17.5 44t43.5 18h363q26 0 43.5 -18t17.5 -44t-17.5 -43.5t-43.5 -17.5h-363q-26 0 -43.5 17.5t-17.5 43.5z" />
<glyph unicode="." horiz-adv-x="354" d="M0 59q0 11 4 27q3 14 12 25q11 20 39 30q15 9 35 9q7 0 27 -5q12 -3 24 -12q19 -11 33 -39q6 -15 6 -35q0 -10 -4 -26q-3 -13 -12 -25q-11 -19 -39 -33q-15 -6 -35 -6q-11 0 -27 4q-4 1 -24 11q-19 14 -33 41q-6 15 -6 34z" />
<glyph unicode="/" horiz-adv-x="661" d="M2 45l363 1516q6 25 27 38t46 7q26 -6 39 -27.5t8 -46.5l-364 -1516q-6 -25 -27.5 -38t-46.5 -7t-38 27.5t-7 46.5z" />
<glyph unicode="0" d="M0 389v4v17v6v758q0 61 20 129q18 62 56 112q72 108 194 158q78 35 170 35q70 0 131 -21q62 -18 115 -53q111 -75 160 -193q35 -78 35 -167v-764q0 -70 -21 -131q-19 -64 -55 -115q-71 -108 -193 -160q-81 -35 -172 -35q-70 0 -131 21q-63 18 -114 55q-108 71 -160 193 q-32 76 -35 151zM123 547l633 659q-2 25 -13 60q-9 33 -38 82q-52 72 -142 112q-58 25 -123 25q-50 0 -94 -15q-35 -9 -84 -38q-77 -55 -115 -138q-24 -56 -24 -120v-627zM125 371q3 -30 12 -56q8 -32 39 -84q54 -76 141 -114q58 -25 123 -25q54 0 95 14q30 8 83 39 q77 55 115 142q25 58 25 123v620z" />
<glyph unicode="1" horiz-adv-x="659" d="M-1 1183q0 25 19 44l363 362q29 29 68 15q36 -16 36 -58v-1515q0 -26 -17.5 -44t-43.5 -18q-25 0 -43.5 18t-18.5 44v1368l-258 -260q-17 -17 -42 -17t-44 17q-19 19 -19 44z" />
<glyph unicode="2" d="M0 1167q0 72 20 131q18 62 56 115q74 110 192 160q81 35 172 35q70 0 131 -21q64 -19 115 -55q109 -73 160 -193q35 -81 35 -172q0 -69 -21 -131q-8 -27 -31 -75l-317 -869h307q26 0 44 -17.5t18 -43.5t-18 -44t-44 -18h-395q-29 0 -49 27q-18 24 -8 55l262 719 q-4 -2 -11 -5l-6 -3q-81 -35 -172 -35q-70 0 -131 21q-63 18 -114 55q-109 71 -160 192q-35 81 -35 172zM123 1167q0 -53 14 -94q8 -32 39 -84q55 -77 141 -115q55 -24 123 -24q54 0 95 14q30 8 83 39q77 55 115 141q25 58 25 123q0 51 -15 95q-14 44 -38 84 q-54 75 -142 114q-58 25 -123 25q-50 0 -94 -15q-44 -14 -84 -38q-77 -55 -115 -142q-24 -55 -24 -123z" />
<glyph unicode="3" horiz-adv-x="1251" d="M0 508q0 81 27 170q28 83 75 147q15 20 40.5 24t45.5 -11t24.5 -39.5t-9.5 -46.5q-39 -51 -60 -113q-20 -68 -20 -131q0 -64 18 -123q17 -56 54 -109q68 -103 182 -151q81 -33 162 -33q60 0 125 19q51 16 108 53q103 70 150 182q32 68 32 162q0 64 -18 123 q-14 45 -51 110q-70 103 -185 150q-81 33 -161 33h-2h-5h-2l-2 2h-2h-2h-2q-2 0 -2 2h-2q-2 0 -4 2h-4v2q-2 0 -4 2q-2 0 -2 2h-2l-2 2q-2 0 -2 2q-2 0 -2 2l-4 4l-478 561q-25 28 -8 66q18 35 55 35h478q27 0 43 -19q18 -15 18 -43v-504q44 -2 98 -20q69 -19 142 -68 q134 -89 196 -237q41 -96 41 -209q0 -83 -24 -160q-19 -68 -68 -141q-87 -132 -235 -195q-98 -43 -211 -43q-80 0 -160 25q-70 19 -141 67q-132 88 -195 238q-43 93 -43 209zM195 1485l282 -332v332h-282z" />
<glyph unicode="4" d="M4 764q-14 42 14 67l758 758q26 29 66 15q39 -16 39 -58v-561v-197v-757q0 -26 -18 -44t-44 -18t-43.5 18t-17.5 44v696h-697q-41 0 -57 37zM209 850h549v135v414z" />
<glyph unicode="5" horiz-adv-x="1253" d="M0 508q0 81 27 170q28 83 75 147q15 20 40.5 24t45.5 -11t24.5 -39.5t-9.5 -46.5q-39 -51 -60 -113q-20 -68 -20 -131q0 -64 18 -123q17 -56 54 -109q68 -103 182 -151q81 -33 162 -33q60 0 125 19q51 16 108 53q103 70 150 182q32 68 32 162q0 64 -18 123 q-14 45 -51 110q-70 103 -185 150q-81 33 -161 33h-2h-5h-2q-2 2 -4 2h-4l-8 4l-4 2h-2l-2 2h-2l-2 2q0 2 -2 2l-2 2l-2 2l-2 2l-2 2v2q-3 0 -3 2h-2q0 2 -2 4q0 2 -2 4q0 3 -2 5v4q-2 2 -2 4q0 4 -2 4v6v4v561q0 27 19 43q16 19 43 19h477q18 0 33.5 -10t21.5 -25 q18 -40 -8 -66l-404 -475q16 -2 39 -10q69 -19 142 -68q134 -89 196 -237q41 -96 41 -209q0 -83 -24 -160q-19 -68 -68 -141q-87 -132 -235 -195q-98 -43 -211 -43q-80 0 -160 25q-70 19 -141 67q-132 88 -195 238q-43 93 -43 209zM600 1153l283 332h-283v-332z" />
<glyph unicode="6" horiz-adv-x="1251" d="M0 508q0 83 25 160q24 78 67 141q40 58 92 104l588 674q17 18 42.5 19.5t45.5 -13.5q18 -17 19.5 -42.5t-13.5 -45.5l-407 -465q47 7 80 7q82 0 159 -25q69 -19 142 -68q134 -89 196 -237q41 -96 41 -209q0 -83 -24 -160q-19 -68 -68 -141q-87 -132 -235 -195 q-98 -43 -211 -43q-80 0 -160 25q-70 19 -141 67q-132 88 -195 238q-43 93 -43 209zM123 508q0 -64 18 -123q17 -56 54 -109q68 -103 182 -151q81 -33 162 -33q60 0 125 19q51 16 108 53q103 70 150 182q32 68 32 162q0 64 -18 123q-14 45 -51 110q-70 103 -185 150 q-81 33 -161 33q-61 0 -123 -19q-59 -18 -109 -53q-102 -64 -151 -182q-33 -81 -33 -162z" />
<glyph unicode="7" horiz-adv-x="1056" d="M0 985q0 22 12.5 38.5t32.5 20.5l596 156l-606 291q-23 10 -31.5 34.5t2.5 47.5q10 23 34.5 31.5t47.5 -2.5l758 -365q38 -17 35 -59q-3 -43 -45 -56l-531 -137l531 -137q20 -4 32.5 -21t12.5 -39v-757q0 -26 -18 -44t-44 -18t-43.5 18t-17.5 44v710l-713 185 q-20 6 -32.5 22.5t-12.5 36.5z" />
<glyph unicode="8" horiz-adv-x="1251" d="M0 508q0 83 25 160q24 78 67 141q36 53 88 102q-35 52 -47 84q-35 81 -35 172q0 69 21 131q19 64 55 115q73 109 193 160q81 35 172 35q69 0 131 -21q63 -18 114 -55q108 -71 160 -193q35 -81 35 -172q0 -69 -21 -131q-18 -63 -55 -114q-5 -10 -6 -11q90 -81 139 -194 q41 -96 41 -209q0 -83 -24 -160q-19 -68 -68 -141q-87 -132 -235 -195q-98 -43 -211 -43q-80 0 -160 25q-70 19 -141 67q-132 88 -195 238q-43 93 -43 209zM123 508q0 -64 18 -123q17 -56 54 -109q68 -103 182 -151q81 -33 162 -33q60 0 125 19q51 16 108 53q103 70 150 182 q32 68 32 162q0 64 -18 123q-14 45 -51 110q-32 47 -74 80q-49 -40 -100 -59q-81 -35 -172 -35q-69 0 -131 21q-64 19 -115 55q-15 9 -27 18q-73 -64 -110 -151q-33 -81 -33 -162zM221 1167q0 -40 15 -94q15 -47 40 -84q0 -1 1 -2t2 -2.5t2 -3.5q37 18 49 23q93 43 209 43 q82 0 159 -25q44 -13 99 -41q17 25 34 63q25 58 25 123q0 54 -14 95q-8 32 -39 84q-54 76 -141 114q-58 25 -123 25q-49 0 -95 -15q-47 -15 -84 -40q-75 -50 -114 -140q-25 -58 -25 -123zM379 893q6 -3 18.5 -9.5t18.5 -9.5q55 -24 123 -24q53 0 94 14q29 8 65 29 q-76 31 -159 31q-61 0 -123 -19q-6 -2 -18.5 -6t-18.5 -6z" />
<glyph unicode="9" d="M0 1167q0 72 20 131q18 62 56 115q74 110 192 160q81 35 172 35q70 0 131 -21q64 -19 115 -55q109 -73 160 -193q35 -81 35 -172q0 -69 -21 -131q-8 -27 -31 -75l-346 -951q-9 -25 -32 -35.5t-48 -1.5q-23 7 -33.5 30.5t-2.5 47.5l262 719q-4 -2 -11 -5l-6 -3 q-81 -35 -172 -35q-70 0 -131 21q-63 18 -114 55q-109 71 -160 192q-35 81 -35 172zM123 1167q0 -53 14 -94q8 -32 39 -84q55 -77 141 -115q55 -24 123 -24q54 0 95 14q30 8 83 39q77 55 115 141q25 58 25 123q0 51 -15 95q-14 44 -38 84q-54 75 -142 114q-58 25 -123 25 q-50 0 -94 -15q-44 -14 -84 -38q-77 -55 -115 -142q-24 -55 -24 -123z" />
<glyph unicode=":" horiz-adv-x="354" d="M0 59q0 11 4 27q3 14 12 25q11 20 39 30q15 9 35 9q7 0 27 -5q12 -3 24 -12q19 -11 33 -39q6 -15 6 -35q0 -10 -4 -26q-3 -13 -12 -25q-11 -19 -39 -33q-15 -6 -35 -6q-11 0 -27 4q-4 1 -24 11q-19 14 -33 41q-6 15 -6 34zM0 819q0 11 4 27q3 12 12 24q12 21 39 31 q13 8 35 8q11 0 27 -4q12 -3 24 -12q19 -11 33 -39q6 -15 6 -35q0 -10 -4 -26q-3 -13 -12 -25q-11 -19 -39 -33q-15 -6 -35 -6q-11 0 -27 4q-8 2 -24 10q-19 14 -33 41q-6 15 -6 35z" />
<glyph unicode=";" horiz-adv-x="493" d="M6 -182l166 403q10 23 33.5 32.5t48.5 0.5q23 -9 32.5 -32.5t0.5 -47.5l-166 -403q-10 -23 -33.5 -32.5t-46.5 -0.5q-24 10 -34 33t-1 47zM139 788q0 11 4 27q3 11 13 25q11 20 39 30q15 9 34 9q7 0 27 -5q14 -3 25 -12q17 -10 32 -39q6 -15 6 -35q0 -10 -4 -26 q-3 -10 -10 -25q-13 -18 -41 -32q-17 -7 -35 -7q-10 0 -26 4q-10 3 -23 11q-24 17 -33 41q-8 13 -8 34z" />
<glyph unicode="&#x3c;" d="M0 788q0 36 33 56l758 393q23 12 47 4t36 -31q11 -22 3 -47t-29 -35l-653 -340l653 -339q22 -12 29.5 -36t-3.5 -46q-12 -23 -36 -31t-47 4l-758 393q-33 20 -33 55z" />
<glyph unicode="=" d="M0 592q0 25 17.5 43t43.5 18h758q26 0 44 -18t18 -43q0 -26 -18 -44t-44 -18h-758q-26 0 -43.5 18t-17.5 44zM0 985q0 26 17.5 44t43.5 18h758q26 0 44 -18t18 -44q0 -25 -18 -43t-44 -18h-758q-26 0 -43.5 18t-17.5 43z" />
<glyph unicode="&#x3e;" horiz-adv-x="1056" d="M4.5 413q7.5 24 30.5 36l653 339l-653 340q-23 10 -30.5 35.5t3.5 46.5q12 23 36.5 31t47.5 -4l758 -393q33 -20 33 -56q0 -35 -33 -55l-758 -393q-23 -12 -47.5 -4t-36.5 31q-11 22 -3.5 46z" />
<glyph unicode="?" horiz-adv-x="997" d="M0 1206q0 103 51 191q49 90 135 143q60 41 125 55q57 13 101 13q106 0 194 -49q93 -49 148 -134q37 -51 57 -125q12 -49 12 -98q0 -103 -51 -194q-49 -90 -135 -146q-52 -34 -119 -53q-4 0 -6 -2l-137 -33q-52 -12 -90 -47q-39 -36 -54 -82q-10 -33 -10 -65q0 -24 6 -48 q6 -26 19 -49q15 -26 28 -39q34 -37 84 -53q30 -12 68 -12q25 0 49 6q52 12 90 47q35 35 53 82q11 37 11 64q2 26 19.5 43.5t43.5 17.5q25 -2 43 -20t17 -44q0 -81 -39 -151q-44 -73 -109 -115q-53 -33 -100 -43q-45 -10 -78 -10q-83 0 -156 39q-71 38 -118 106 q-32 52 -43 101q-11 37 -11 78q0 83 39 153q37 69 109 117q45 31 100 43l129 33q4 0 6 2q76 19 127 67q54 48 76 115q16 46 16 92q0 30 -10 68q-5 32 -26 67q-14 27 -41 58q-53 53 -117 73q-53 17 -94 17q-39 0 -70 -8q-69 -17 -127 -68q-51 -45 -76 -113q-16 -50 -16 -92 q0 -25 -18.5 -42.5t-43.5 -16.5q-26 0 -43.5 17.5t-17.5 43.5zM332 61q0 11 4 27q4 15 12 23q13 22 39 32q17 7 35 7q17 0 27 -5q11 -3 22 -10q25 -18 33 -39q8 -24 8 -35q0 -10 -4 -26q-2 -4 -6 -12.5t-6 -12.5q-15 -21 -39 -33q-15 -6 -35 -6q-11 0 -27 4q-4 1 -24 11 q-21 15 -31 41q-8 13 -8 34z" />
<glyph unicode="@" horiz-adv-x="1683" d="M0 489q0 124 33 224q35 111 96 198q124 187 332 275q144 59 293 59q115 0 225 -35q104 -33 199 -94q187 -129 272 -334q59 -136 59 -293q0 -172 -69 -319q-67 -142 -189 -252q-2 0 -6 -4h-2q-6 -4 -18 -8h-2l-2 -2h-4h-3h-4h-2h-2h-2h-2h-2h-2l-2 2h-2h-2q-12 4 -18 8 q0 2 -3 2q-8 8 -12 14l-2 2q0 1 -1 3.5t-1 3.5l-260 514l-518 -344q-17 -12 -38 -11t-36 15t-19 34t5 39l383 766q18 35 55 35q34 0 55 -35l445 -884q64 73 100 153q59 124 59 268q0 97 -28 189q-27 88 -78 164q-108 158 -279 229q-117 51 -247 51q-95 0 -187 -28 q-86 -26 -166 -80q-156 -104 -229 -279q-49 -113 -49 -246q0 -99 27 -188q25 -83 79 -166q109 -155 279 -229q120 -49 246 -49q26 0 43.5 -18.5t17.5 -43.5q0 -26 -17.5 -43.5t-43.5 -17.5q-108 0 -224 33q-105 34 -198 96q-186 126 -273 332q-59 136 -59 294zM502 338 l338 225l-113 225z" />
<glyph unicode="A" horiz-adv-x="1814" d="M4 18q-2 7 -2 13q0 13 6 26l758 1516q15 35 55 35q41 0 56 -35l757 -1516q6 -13 6 -26q0 -10 -3 -20q-8 -24 -31 -36q-12 -6 -25 -6q-10 -1 -21 3q-24 8 -36 32l-348 694l-1078 -718q-19 -12 -37 -12q-20 0 -38 16q-15 14 -19 34zM221 211l899 598l-299 600z" />
<glyph unicode="B" horiz-adv-x="1447" d="M0 606v182v379q0 72 20 131q18 62 56 115q74 110 192 160q81 35 172 35q70 0 131 -21q64 -19 115 -55q109 -73 160 -193q30 -76 33 -143q117 -48 208 -139q105 -102 156 -248q31 -98 31 -203q0 -102 -29 -188q-27 -90 -80 -168q-108 -159 -280 -232q-120 -49 -248 -49 q-93 0 -188 29q-90 27 -168 80q-161 112 -232 280q-49 120 -49 248zM123 606q0 -77 22 -151q26 -79 66 -136q85 -127 225 -186q93 -41 201 -41q73 0 154 23q80 26 135 65q126 85 186 226q39 95 39 200q0 127 -57 238q-58 110 -154 178q-43 30 -72 45q-4 -22 -8 -31 q-18 -63 -55 -114q-71 -108 -193 -160q-81 -35 -172 -35h-317v-121zM123 850h317q54 0 95 14q30 8 83 39q77 55 115 141q22 52 25 111v12q0 49 -15 95q-14 44 -38 84q-54 75 -142 114q-58 25 -123 25q-40 0 -94 -15q-46 -15 -84 -40q-76 -51 -115 -140q-24 -55 -24 -123 v-317z" />
<glyph unicode="C" horiz-adv-x="1449" d="M0 788q0 129 37 244q39 118 102 215q137 201 361 297q153 64 319 64q113 0 225 -31q103 -29 201 -88q22 -15 28 -39q2 -8 2 -15q0 -16 -9 -32q-13 -21 -37.5 -27t-46.5 6q-86 53 -172 76q-100 27 -191 27q-105 0 -207 -31q-93 -28 -182 -88q-172 -118 -252 -307 q-55 -129 -55 -271q0 -104 31 -206q29 -95 88 -183q120 -176 307 -252q122 -55 270 -55q103 0 191 27q82 22 172 74q22 14 46.5 8t37.5 -29q9 -15 9 -31q0 -7 -2 -15q-6 -24 -28 -38q-98 -59 -201 -88q-112 -31 -225 -31q-129 0 -244 37q-112 36 -215 103q-202 138 -297 360 q-63 151 -63 319z" />
<glyph unicode="D" horiz-adv-x="1417" d="M0 31v1423q0 36 33 53q86 50 186 74q99 27 205 27q132 0 244 -37q75 -22 155 -66l2 -2q55 -33 58 -35q205 -141 297 -360q63 -151 63 -320q0 -128 -37 -243q-34 -115 -102 -215q-134 -200 -361 -297q-153 -64 -319 -64q-31 0 -47 25q-19 22 -12 51l358 1372q-5 2 -27 13 q-132 55 -272 55q-84 0 -174 -23q-56 -13 -127 -47v-1384q0 -26 -18 -44t-44 -18t-43.5 18t-17.5 44zM506 96q66 9 127 27q93 30 180 88q173 117 254 307q53 124 53 270q0 108 -30 207q-30 100 -89 183q-68 102 -170 176z" />
<glyph unicode="E" horiz-adv-x="1056" d="M2 399q1 20 13.5 34.5t31.5 19.5l531 139l-531 137q-20 4 -32.5 20.5t-12.5 38.5t12.5 39t32.5 21l531 137l-531 137q-42 13 -45 56v6q0 37 35 53l758 365q13 6 26 6q9 0 21 -4q24 -8 35 -31q6 -13 6 -26q1 -9 -3 -21q-8 -24 -32 -35l-606 -291l596 -156 q20 -4 32.5 -20.5t12.5 -38.5q0 -20 -12.5 -36.5t-32.5 -22.5l-531 -138l531 -137q20 -6 32.5 -22.5t12.5 -36.5q0 -22 -12.5 -39t-32.5 -21l-596 -155l606 -291q24 -10 32 -34q4 -11 3 -22q0 -13 -6 -26q-11 -24 -35 -32q-11 -4 -21 -3q-13 0 -26 6l-758 363q-35 19 -35 55 v6z" />
<glyph unicode="F" horiz-adv-x="1056" d="M2 31v757q0 22 12.5 39t32.5 21l531 137l-531 137q-42 13 -45 56v6q0 37 35 53l758 365q13 6 26 6q9 0 21 -4q24 -8 35 -31q6 -13 6 -26q1 -9 -3 -21q-8 -24 -32 -35l-606 -291l596 -156q20 -4 32.5 -20.5t12.5 -38.5q0 -20 -12.5 -36.5t-32.5 -22.5l-713 -185v-710 q0 -26 -18 -44t-44 -18t-43.5 18t-17.5 44z" />
<glyph unicode="G" horiz-adv-x="1812" d="M0 788v3q0 129 37 241q39 118 102 215q137 201 361 297q153 64 319 64q113 0 225 -31q103 -29 201 -88q22 -14 28 -38.5t-7 -47.5q-13 -21 -37.5 -27t-46.5 6q-86 53 -172 76q-100 27 -191 27q-105 0 -207 -31q-93 -28 -182 -88q-176 -120 -252 -307q-42 -95 -51 -201 l1415 189q23 3 42.5 -10t25.5 -36q28 -106 28 -213q0 -131 -36 -243t-103 -215q-138 -200 -360 -297q-153 -64 -320 -64q-129 0 -244 37q-112 36 -215 103q-200 135 -297 360q-63 151 -63 319zM125 735q5 -70 29 -153q29 -95 88 -183q120 -176 307 -252q122 -55 270 -55 q105 0 207 31q93 28 182 88q172 118 252 307q56 131 56 270q0 63 -13 130z" />
<glyph unicode="H" horiz-adv-x="1447" d="M0 31v1515q0 20 11 36t30 22q12 4 23 4q28 0 47 -25l526 -692l528 692q11 15 30 21q10 3 19 3l19 -3q19 -6 30 -22t11 -36v-1515q0 -20 -11 -36t-30 -22q-10 -4 -20 -4l-18 3q-19 6 -30 22l-528 692l-526 -692q-20 -25 -47 -25q-11 0 -23 4q-19 6 -30 22t-11 36zM123 213 l438 575l-438 576v-1151zM715 788l436 -575v1151z" />
<glyph unicode="I" horiz-adv-x="296" d="M0 31v1515q0 26 17.5 44t43.5 18t44 -18t18 -44v-1515q0 -26 -18 -44t-44 -18t-43.5 18t-17.5 44z" />
<glyph unicode="J" d="M0 20v3v2v2v4v2v2v2v2v2l2 2v2v2v2h2v2v2q0 2 2 2v2q0 2 2 2v2q0 2 2 2v3l2 2l2 2v2h2q0 2 2 2l740 739v733q0 26 17.5 44t43.5 18t44 -18t18 -44v-758v-757q0 -27 -19 -43q-16 -19 -43 -19h-758h-2h-2h-2h-2h-2q-2 0 -2 2h-2h-2h-2l-2 2h-2q-2 0 -2 2h-2q-2 0 -2 2h-2 h-2q0 3 -2 3l-2 2l-2 2h-3v2q-2 0 -2 2q-2 0 -2 2h-2v2q-2 0 -2 2t-2 2v2h-2v2v2q-2 0 -2 2v2h-2v2v2l-2 2v2v2v2zM209 92h549v549z" />
<glyph unicode="K" d="M0 31v757v758q0 26 17.5 44t43.5 18t44 -18t18 -44v-610l653 653q17 19 42 19t44 -19t19 -44t-19 -42l-715 -715l715 -714q20 -17 20 -42q0 -12 -5 -26q-16 -37 -58 -37h-758q-27 0 -43 19q-18 15 -18 43zM123 92h549l-549 549v-549z" />
<glyph unicode="L" d="M0 31v757v758q0 26 17.5 44t43.5 18t44 -18t18 -44v-733l739 -739l2 -2h2v-2q2 0 2 -2t2 -2v-3q2 0 2 -2v-2q2 0 2 -2v-2q3 0 3 -2v-2v-2h2v-2v-2v-2v-2q2 0 2 -2v-2v-2v-2v-2v-4v-2v-2q0 -3 -2 -3v-2v-2v-2v-2q-2 0 -2 -2v-2v-2h-3v-2q0 -2 -2 -2v-2v-2h-2v-2l-2 -2 l-2 -2v-2h-2q0 -2 -2 -2l-2 -2v-2h-2q0 -2 -2 -2l-2 -2q-2 0 -2 -3h-2h-2q0 -2 -2 -2h-2q0 -2 -2 -2h-2h-2v-2h-2h-2h-3l-2 -2h-2h-2h-2h-2h-2h-758q-27 0 -43 19q-18 15 -18 43zM123 92h549l-549 549v-549z" />
<glyph unicode="M" horiz-adv-x="1812" d="M2 45l363 1516q5 20 21 33.5t38 13.5t38.5 -12.5t20.5 -32.5l336 -1289l334 1289q6 20 22.5 32.5t38.5 12.5q21 0 37.5 -13t22.5 -34l362 -1516q2 -7 2 -15q0 -19 -12 -38q-20 -23 -49 -23h-1516q-29 0 -49 23q-12 19 -12 38q0 8 2 15zM139 92h600l-311 1200zM899 92h600 l-289 1200z" />
<glyph unicode="N" d="M0 31v1515q0 22 13.5 38.5t33.5 21.5q22 5 41.5 -4t28.5 -29l641 -1282v1255q0 26 17.5 44t43.5 18t44 -18t18 -44v-1515v-4v-2v-5h-2v-6q0 -2 -2 -4q0 -1 -3 -4v-2q0 -2 -2 -2v-2q0 -2 -2 -2q0 -2 -2 -2v-2l-2 -2v-2q-1 0 -2 -1t-2 -1v-2q-2 0 -4 -2l-2 -2l-2 -2 q-2 0 -2 -3h-4v-2q-4 0 -4 -2q-4 0 -6 -2h-4q-3 0 -3 -2h-2h-2h-10h-756q-27 0 -43 19q-18 15 -18 43zM123 92h596l-596 1194v-1194z" />
<glyph unicode="O" horiz-adv-x="1812" d="M0 788q0 129 37 244q39 118 102 215q137 201 361 297q153 64 319 64q129 0 244 -37q112 -36 215 -103q200 -138 297 -360q63 -151 63 -320q0 -131 -36 -243t-103 -215q-135 -200 -360 -297q-153 -64 -320 -64q-129 0 -244 37q-112 36 -215 103q-202 138 -297 360 q-63 151 -63 319zM123 788q0 -104 31 -206q29 -95 88 -183q120 -176 307 -252q122 -55 270 -55q105 0 207 31q93 28 182 88q176 120 252 307q56 124 56 270q0 105 -31 207q-29 95 -88 183q-118 172 -307 252q-129 55 -271 55q-105 0 -207 -31q-93 -28 -182 -88 q-172 -118 -252 -307q-55 -129 -55 -271z" />
<glyph unicode="P" d="M0 31v1136q0 72 20 131q18 62 56 115q74 110 192 160q81 35 172 35q70 0 131 -21q64 -19 115 -55q108 -71 160 -193q35 -81 35 -172q0 -69 -21 -131q-18 -63 -55 -114q-71 -108 -193 -160q-81 -35 -172 -35h-317v-696q0 -26 -18 -44t-44 -18t-43.5 18t-17.5 44zM123 850 h317q54 0 95 14q30 8 83 39q77 55 115 141q25 58 25 123q0 51 -15 95q-9 35 -38 84q-54 75 -142 114q-58 25 -123 25q-50 0 -94 -15q-46 -15 -84 -40q-76 -51 -115 -140q-24 -55 -24 -123v-317z" />
<glyph unicode="Q" horiz-adv-x="1812" d="M0 788q0 129 37 244q39 118 102 215q137 201 361 297q153 64 319 64q207 0 391 -101q179 -97 291 -264q76 -114 109 -242q7 -24 -5.5 -45.5t-37.5 -29.5l-629 -170l461 -459l221 -223q19 -19 19 -44t-19 -42q-17 -19 -42 -19t-44 19l-180 180q-91 -79 -215 -135 q-153 -64 -320 -64q-129 0 -244 37q-112 36 -215 103q-202 138 -297 360q-63 151 -63 319zM123 788q0 -104 31 -206q29 -95 88 -183q120 -176 307 -252q122 -55 270 -55q149 0 271 55q95 39 176 107l-490 491q-19 17 -19 41q0 9 3 19q10 33 43 43l670 180q-44 124 -144 236 q-118 127 -280 182q-112 39 -230 39q-105 0 -207 -31q-93 -28 -182 -88q-172 -118 -252 -307q-55 -129 -55 -271z" />
<glyph unicode="R" d="M0 31v757q0 28 18 43q16 19 43 19h138l-189 283q-10 17 -10 34q0 72 20 131q18 62 56 115q74 110 192 160q81 35 172 35q70 0 131 -21q64 -19 115 -55q108 -71 160 -193q35 -81 35 -172q0 -69 -21 -131q-18 -63 -55 -114q-71 -108 -193 -160q-81 -35 -172 -35h-12 l442 -661q14 -22 9 -47.5t-25 -38.5q-22 -14 -47.5 -9t-38.5 25l-487 731h-158v-696q0 -26 -18 -44t-44 -18t-43.5 18t-17.5 44zM123 1186l223 -336h94q54 0 95 14q30 8 83 39q77 55 115 141q25 58 25 123q0 51 -15 95q-9 35 -38 84q-54 75 -142 114q-58 25 -123 25 q-50 0 -94 -15q-46 -15 -84 -40q-76 -51 -115 -140q-21 -50 -24 -104z" />
<glyph unicode="S" d="M0 399q0 26 17.5 44t43.5 20q25 0 43.5 -18t18.5 -44q0 -78 39 -145q40 -73 104 -111q46 -31 96 -43q36 -8 78 -8q82 0 152 37q71 39 113 102q31 45 43 97q10 31 10 76q0 75 -37 147q-37 67 -105 113q-53 31 -98 41l-174 43q-6 0 -10 2q-112 27 -193 102t-116 176 q-25 70 -25 144q0 52 12 104q12 44 41 104q26 45 66 88q75 78 178 113q70 25 143 25q47 0 107 -13q106 -26 192 -102q80 -77 117 -174q25 -80 25 -141q0 -25 -18 -43.5t-44 -18.5q-25 0 -43 17.5t-18 42.5q0 77 -39 147q-40 69 -105 111q-49 30 -96 41q-45 10 -78 10 q-75 0 -151 -37q-71 -39 -113 -102q-31 -46 -43 -99q-10 -31 -10 -73q0 -79 37 -148q38 -69 104 -113q39 -25 82 -36q3 -3 6 -3l195 -47q112 -27 192 -104q84 -77 117 -176q25 -70 25 -141q0 -47 -13 -107q-13 -47 -41 -102q-24 -43 -65 -88q-78 -81 -178 -115 q-74 -23 -144 -23q-46 0 -106 13q-112 27 -193 102q-79 73 -116 174q-25 80 -25 139z" />
<glyph unicode="T" d="M0 1536v2v2v2v4v2v2v2v2q0 2 2 2v3v2v2v2h2v2v2q0 2 2 2v2q0 2 2 2v2q0 2 2 2v2l2 2l2 2v2h2q0 2 2 2l2 2v2h3q0 2 2 2t2 2h2q0 2 2 2h2q0 3 2 3h2q0 2 2 2h2h2v2h2h2h2h2q0 2 2 2h2h2h2h2h758q41 0 58 -39q4 -12 4 -24q0 -26 -21 -44l-375 -346v-1124q0 -26 -17.5 -44 t-43.5 -18q-25 0 -43.5 18t-18.5 44v1126l-344 346q-2 0 -2 2h-2v2q-2 0 -2 2t-2 2v2h-2v3v2q-2 0 -2 2v2h-2v2v2l-2 2v2v2v2zM209 1485l217 -217l236 217h-453z" />
<glyph unicode="U" d="M0 391v2v17v6v366v13v751q0 26 18 44t43 18q26 0 44 -18t18 -44v-608l653 651q18 20 41 20q12 0 25 -5q39 -16 39 -58v-1136q0 -70 -21 -131q-19 -64 -55 -115q-71 -108 -193 -160q-81 -35 -172 -35q-70 0 -131 21q-63 18 -114 55q-108 71 -160 193q-32 76 -35 153z M123 395q3 -47 14 -80q8 -32 39 -84q54 -76 141 -114q58 -25 123 -25q54 0 95 14q30 8 83 39q77 55 115 142q25 58 25 123v989l-635 -635v-369z" />
<glyph unicode="V" horiz-adv-x="1814" d="M4 1566q8 24 31 36q12 6 25 6q10 0 21 -4q24 -8 36 -31l348 -694l1077 718q16 9 34 9h6q21 -2 36 -15q15 -14 19 -33q1 -6 1 -12q0 -13 -6 -26l-758 -1516q-15 -35 -55 -35t-55 35l-758 1516q-6 12 -6 25q0 11 4 21zM520 768l299 -600l600 1198z" />
<glyph unicode="W" horiz-adv-x="1812" d="M2 1532q-2 8 -2 15q0 15 9 31q13 22 38 28q8 2 15 2q16 0 32 -9q22 -13 27 -38l307 -1278l332 1267q5 20 21 33.5t38 13.5t38.5 -13.5t21.5 -33.5l331 -1267l308 1278q6 25 27 38q14 9 31 9q7 0 15 -2q25 -6 38 -28q9 -15 9 -31q0 -8 -2 -15l-362 -1516q-6 -21 -22.5 -34 t-37.5 -13q-22 0 -38.5 12.5t-22.5 32.5l-334 1278l-336 -1278q-4 -20 -20.5 -32.5t-38.5 -12.5t-38 13.5t-21 33.5z" />
<glyph unicode="X" d="M4 1566q8 24 31 36q12 6 25 6q10 0 21 -4q24 -8 36 -31l319 -639l316 639q10 23 34 31q11 4 22 4q13 0 26 -6q23 -10 30.5 -34.5t-4.5 -47.5l-354 -725l368 -738q6 -14 6 -27q0 -17 -10 -32q-16 -29 -51 -29h-758q-35 0 -51 29q-10 15 -10 32q0 13 6 27l363 738l-363 725 q-6 12 -6 25q0 11 4 21zM160 92h559l-281 565z" />
<glyph unicode="Y" horiz-adv-x="1056" d="M8 1573q15 35 55 35h758q30 0 49 -25q13 -18 13 -38q0 -7 -2 -15l-396 -1516q-6 -25 -27 -37q-14 -8 -30 -8q-8 0 -16 2q-25 6 -38 28t-7 48l190 729l-543 733q-13 17 -13 36q0 14 7 28zM186 1485l410 -557l145 557h-555z" />
<glyph unicode="Z" d="M0 1546q0 26 17.5 44t43.5 18h758q35 0 51 -29q18 -27 4 -59l-712 -1428h657q26 0 44 -17.5t18 -43.5t-18 -44t-44 -18h-758q-34 0 -53 29q-9 15 -9 31q0 14 7 28l713 1428h-658q-26 0 -43.5 17.5t-17.5 43.5z" />
<glyph unicode="[" horiz-adv-x="462" d="M0 -205v1751q0 27 16 43q19 19 45 19h166q26 0 44 -18t18 -44t-18 -43.5t-44 -17.5h-104v-1628h104q26 0 44 -18.5t18 -43.5q0 -26 -18 -43.5t-44 -17.5h-166q-27 0 -45 18q-16 16 -16 43z" />
<glyph unicode="\" horiz-adv-x="661" d="M2 1532q-6 25 7 46.5t38 27.5t46.5 -7t27.5 -38l364 -1516q5 -25 -8 -46.5t-39 -27.5q-25 -6 -46 7t-27 38z" />
<glyph unicode="]" horiz-adv-x="462" d="M0 -205q0 25 17.5 43.5t43.5 18.5h105v1628h-105q-26 0 -43.5 17.5t-17.5 43.5t17.5 44t43.5 18h166q27 0 43 -19q19 -16 19 -43v-1751q0 -27 -19 -43q-15 -18 -43 -18h-166q-26 0 -43.5 17.5t-17.5 43.5z" />
<glyph unicode="^" d="M3.5 767.5q-8.5 24.5 2.5 47.5l363 758q8 15 23 25t32 10q38 0 55 -33l395 -758q11 -23 3.5 -47.5t-29.5 -36.5q-23 -11 -47.5 -3.5t-36.5 30.5l-336 649l-311 -647q-10 -23 -34.5 -31.5t-47.5 2.5q-23 10 -31.5 34.5z" />
<glyph unicode="_" horiz-adv-x="1447" d="M0 -205q0 26 17.5 44t43.5 18h1151q26 0 44 -18t18 -44t-18 -43.5t-44 -17.5h-1151q-26 0 -43.5 17.5t-17.5 43.5z" />
<glyph unicode="`" horiz-adv-x="462" d="M-1 1545q0 25 19 44t44 19t42 -19l166 -166q19 -19 19 -44t-19 -44q-17 -17 -42 -17t-44 17l-166 168q-19 17 -19 42z" />
<glyph unicode="a" horiz-adv-x="1814" d="M4 18q-2 7 -2 13q0 13 6 26l758 1516q15 35 55 35q41 0 56 -35l757 -1516q6 -13 6 -26q0 -10 -3 -20q-8 -24 -31 -36q-12 -6 -25 -6q-10 -1 -21 3q-24 8 -36 32l-348 694l-1078 -718q-19 -12 -37 -12q-20 0 -38 16q-15 14 -19 34zM221 211l899 598l-299 600z" />
<glyph unicode="b" horiz-adv-x="1447" d="M0 606v182v379q0 72 20 131q18 62 56 115q74 110 192 160q81 35 172 35q70 0 131 -21q64 -19 115 -55q109 -73 160 -193q30 -76 33 -143q117 -48 208 -139q105 -102 156 -248q31 -98 31 -203q0 -102 -29 -188q-27 -90 -80 -168q-108 -159 -280 -232q-120 -49 -248 -49 q-93 0 -188 29q-90 27 -168 80q-161 112 -232 280q-49 120 -49 248zM123 606q0 -77 22 -151q26 -79 66 -136q85 -127 225 -186q93 -41 201 -41q73 0 154 23q80 26 135 65q126 85 186 226q39 95 39 200q0 127 -57 238q-58 110 -154 178q-43 30 -72 45q-4 -22 -8 -31 q-18 -63 -55 -114q-71 -108 -193 -160q-81 -35 -172 -35h-317v-121zM123 850h317q54 0 95 14q30 8 83 39q77 55 115 141q22 52 25 111v12q0 49 -15 95q-14 44 -38 84q-54 75 -142 114q-58 25 -123 25q-40 0 -94 -15q-46 -15 -84 -40q-76 -51 -115 -140q-24 -55 -24 -123 v-317z" />
<glyph unicode="c" horiz-adv-x="1449" d="M0 788q0 129 37 244q39 118 102 215q137 201 361 297q153 64 319 64q113 0 225 -31q103 -29 201 -88q22 -15 28 -39q2 -8 2 -15q0 -16 -9 -32q-13 -21 -37.5 -27t-46.5 6q-86 53 -172 76q-100 27 -191 27q-105 0 -207 -31q-93 -28 -182 -88q-172 -118 -252 -307 q-55 -129 -55 -271q0 -104 31 -206q29 -95 88 -183q120 -176 307 -252q122 -55 270 -55q103 0 191 27q82 22 172 74q22 14 46.5 8t37.5 -29q9 -15 9 -31q0 -7 -2 -15q-6 -24 -28 -38q-98 -59 -201 -88q-112 -31 -225 -31q-129 0 -244 37q-112 36 -215 103q-202 138 -297 360 q-63 151 -63 319z" />
<glyph unicode="d" horiz-adv-x="1417" d="M0 31v1423q0 36 33 53q86 50 186 74q99 27 205 27q132 0 244 -37q75 -22 155 -66l2 -2q55 -33 58 -35q205 -141 297 -360q63 -151 63 -320q0 -128 -37 -243q-34 -115 -102 -215q-134 -200 -361 -297q-153 -64 -319 -64q-31 0 -47 25q-19 22 -12 51l358 1372q-5 2 -27 13 q-132 55 -272 55q-84 0 -174 -23q-56 -13 -127 -47v-1384q0 -26 -18 -44t-44 -18t-43.5 18t-17.5 44zM506 96q66 9 127 27q93 30 180 88q173 117 254 307q53 124 53 270q0 108 -30 207q-30 100 -89 183q-68 102 -170 176z" />
<glyph unicode="e" horiz-adv-x="1056" d="M2 399q1 20 13.5 34.5t31.5 19.5l531 139l-531 137q-20 4 -32.5 20.5t-12.5 38.5t12.5 39t32.5 21l531 137l-531 137q-42 13 -45 56v6q0 37 35 53l758 365q13 6 26 6q9 0 21 -4q24 -8 35 -31q6 -13 6 -26q1 -9 -3 -21q-8 -24 -32 -35l-606 -291l596 -156 q20 -4 32.5 -20.5t12.5 -38.5q0 -20 -12.5 -36.5t-32.5 -22.5l-531 -138l531 -137q20 -6 32.5 -22.5t12.5 -36.5q0 -22 -12.5 -39t-32.5 -21l-596 -155l606 -291q24 -10 32 -34q4 -11 3 -22q0 -13 -6 -26q-11 -24 -35 -32q-11 -4 -21 -3q-13 0 -26 6l-758 363q-35 19 -35 55 v6z" />
<glyph unicode="f" horiz-adv-x="1056" d="M2 31v757q0 22 12.5 39t32.5 21l531 137l-531 137q-42 13 -45 56v6q0 37 35 53l758 365q13 6 26 6q11 0 21 -4q25 -8 35 -31q6 -13 6 -26q0 -11 -3 -21q-9 -25 -32 -35l-606 -291l596 -156q20 -4 32.5 -20.5t12.5 -38.5q0 -20 -12.5 -36.5t-32.5 -22.5l-713 -185v-710 q0 -26 -18 -44t-44 -18t-43.5 18t-17.5 44z" />
<glyph unicode="g" horiz-adv-x="1812" d="M0 788v3q0 129 37 241q39 118 102 215q137 201 361 297q153 64 319 64q113 0 225 -31q103 -29 201 -88q22 -14 28 -38.5t-7 -47.5q-13 -21 -37.5 -27t-46.5 6q-86 53 -172 76q-100 27 -191 27q-105 0 -207 -31q-93 -28 -182 -88q-176 -120 -252 -307q-42 -95 -51 -201 l1415 189q23 3 42.5 -10t25.5 -36q28 -106 28 -213q0 -131 -36 -243t-103 -215q-138 -200 -360 -297q-153 -64 -320 -64q-129 0 -244 37q-112 36 -215 103q-200 135 -297 360q-63 151 -63 319zM125 735q5 -70 29 -153q29 -95 88 -183q120 -176 307 -252q122 -55 270 -55 q105 0 207 31q93 28 182 88q172 118 252 307q56 131 56 270q0 63 -13 130z" />
<glyph unicode="h" horiz-adv-x="1447" d="M0 31v1515q0 20 11 36t30 22q12 4 23 4q28 0 47 -25l526 -692l528 692q11 15 30 21q10 3 19 3l19 -3q19 -6 30 -22t11 -36v-1515q0 -20 -11 -36t-30 -22q-10 -4 -20 -4l-18 3q-19 6 -30 22l-528 692l-526 -692q-20 -25 -47 -25q-11 0 -23 4q-19 6 -30 22t-11 36zM123 213 l438 575l-438 576v-1151zM715 788l436 -575v1151z" />
<glyph unicode="i" horiz-adv-x="296" d="M0 31v1515q0 26 17.5 44t43.5 18t44 -18t18 -44v-1515q0 -26 -18 -44t-44 -18t-43.5 18t-17.5 44z" />
<glyph unicode="j" d="M0 20v3v2v2v4v2v2v2v2v2l2 2v2v2v2h2v2v2q0 2 2 2v2q0 2 2 2v2q0 2 2 2v3l2 2l2 2v2h2q0 2 2 2l740 739v733q0 26 17.5 44t43.5 18t44 -18t18 -44v-758v-757q0 -27 -19 -43q-16 -19 -43 -19h-758h-2h-2h-2h-2h-2q-2 0 -2 2h-2h-2h-2l-2 2h-2q-2 0 -2 2h-2q-2 0 -2 2h-2 h-2q0 3 -2 3l-2 2l-2 2h-3v2q-2 0 -2 2q-2 0 -2 2h-2v2q-2 0 -2 2t-2 2v2h-2v2v2q-2 0 -2 2v2h-2v2v2l-2 2v2v2v2zM209 92h549v549z" />
<glyph unicode="k" d="M0 31v757v758q0 26 17.5 44t43.5 18t44 -18t18 -44v-610l653 653q17 19 42 19t44 -19t19 -44t-19 -42l-715 -715l715 -714q20 -17 20 -42q0 -12 -5 -26q-16 -37 -58 -37h-758q-27 0 -43 19q-18 15 -18 43zM123 92h549l-549 549v-549z" />
<glyph unicode="l" d="M0 31v757v758q0 26 17.5 44t43.5 18t44 -18t18 -44v-733l739 -739l2 -2h2v-2q2 0 2 -2t2 -2v-3q2 0 2 -2v-2q2 0 2 -2v-2q3 0 3 -2v-2v-2h2v-2v-2v-2v-2q2 0 2 -2v-2v-2v-2v-2v-4v-2v-2q0 -3 -2 -3v-2v-2v-2v-2q-2 0 -2 -2v-2v-2h-3v-2q0 -2 -2 -2v-2v-2h-2v-2l-2 -2 l-2 -2v-2h-2q0 -2 -2 -2l-2 -2v-2h-2q0 -2 -2 -2l-2 -2q-2 0 -2 -3h-2h-2q0 -2 -2 -2h-2q0 -2 -2 -2h-2h-2v-2h-2h-2h-3l-2 -2h-2h-2h-2h-2h-2h-758q-27 0 -43 19q-18 15 -18 43zM123 92h549l-549 549v-549z" />
<glyph unicode="m" horiz-adv-x="1812" d="M2 45l363 1516q5 20 21 33.5t38 13.5t38.5 -12.5t20.5 -32.5l336 -1289l334 1289q6 20 22.5 32.5t38.5 12.5q21 0 37.5 -13t22.5 -34l362 -1516q2 -7 2 -15q0 -19 -12 -38q-20 -23 -49 -23h-1516q-29 0 -49 23q-12 19 -12 38q0 8 2 15zM139 92h600l-311 1200zM899 92h600 l-289 1200z" />
<glyph unicode="n" d="M0 31v1515q0 22 13.5 38.5t33.5 21.5q22 5 41.5 -4t28.5 -29l641 -1282v1255q0 26 17.5 44t43.5 18t44 -18t18 -44v-1515v-4v-2v-5h-2v-6q0 -2 -2 -4q0 -1 -3 -4v-2q0 -2 -2 -2v-2q0 -2 -2 -2q0 -2 -2 -2v-2l-2 -2v-2q-1 0 -2 -1t-2 -1v-2q-2 0 -4 -2l-2 -2l-2 -2 q-2 0 -2 -3h-4v-2q-4 0 -4 -2q-4 0 -6 -2h-4q-3 0 -3 -2h-2h-2h-10h-756q-27 0 -43 19q-18 15 -18 43zM123 92h596l-596 1194v-1194z" />
<glyph unicode="o" horiz-adv-x="1812" d="M0 788q0 129 37 244q39 118 102 215q137 201 361 297q153 64 319 64q129 0 244 -37q112 -36 215 -103q200 -138 297 -360q63 -151 63 -320q0 -131 -36 -243t-103 -215q-135 -200 -360 -297q-153 -64 -320 -64q-129 0 -244 37q-112 36 -215 103q-202 138 -297 360 q-63 151 -63 319zM123 788q0 -104 31 -206q29 -95 88 -183q120 -176 307 -252q122 -55 270 -55q105 0 207 31q93 28 182 88q176 120 252 307q56 124 56 270q0 105 -31 207q-29 95 -88 183q-118 172 -307 252q-129 55 -271 55q-105 0 -207 -31q-93 -28 -182 -88 q-172 -118 -252 -307q-55 -129 -55 -271z" />
<glyph unicode="p" d="M0 31v1136q0 72 20 131q18 62 56 115q74 110 192 160q81 35 172 35q70 0 131 -21q64 -19 115 -55q108 -71 160 -193q35 -81 35 -172q0 -69 -21 -131q-18 -63 -55 -114q-71 -108 -193 -160q-81 -35 -172 -35h-317v-696q0 -26 -18 -44t-44 -18t-43.5 18t-17.5 44zM123 850 h317q54 0 95 14q30 8 83 39q77 55 115 141q25 58 25 123q0 51 -15 95q-9 35 -38 84q-54 75 -142 114q-58 25 -123 25q-50 0 -94 -15q-46 -15 -84 -40q-76 -51 -115 -140q-24 -55 -24 -123v-317z" />
<glyph unicode="q" horiz-adv-x="1812" d="M0 788q0 129 37 244q39 118 102 215q137 201 361 297q153 64 319 64q207 0 391 -101q179 -97 291 -264q76 -114 109 -242q7 -24 -5.5 -45.5t-37.5 -29.5l-629 -170l461 -459l221 -223q19 -19 19 -44t-19 -42q-17 -19 -42 -19t-44 19l-180 180q-91 -79 -215 -135 q-153 -64 -320 -64q-129 0 -244 37q-112 36 -215 103q-202 138 -297 360q-63 151 -63 319zM123 788q0 -104 31 -206q29 -95 88 -183q120 -176 307 -252q122 -55 270 -55q149 0 271 55q95 39 176 107l-490 491q-19 17 -19 41q0 9 3 19q10 33 43 43l670 180q-44 124 -144 236 q-118 127 -280 182q-112 39 -230 39q-105 0 -207 -31q-93 -28 -182 -88q-172 -118 -252 -307q-55 -129 -55 -271z" />
<glyph unicode="r" d="M0 31v757q0 28 18 43q16 19 43 19h138l-189 283q-10 17 -10 34q0 72 20 131q18 62 56 115q74 110 192 160q81 35 172 35q70 0 131 -21q64 -19 115 -55q108 -71 160 -193q35 -81 35 -172q0 -69 -21 -131q-18 -63 -55 -114q-71 -108 -193 -160q-81 -35 -172 -35h-12 l442 -661q14 -22 9 -47.5t-25 -38.5q-22 -14 -47.5 -9t-38.5 25l-487 731h-158v-696q0 -26 -18 -44t-44 -18t-43.5 18t-17.5 44zM123 1186l223 -336h94q54 0 95 14q30 8 83 39q77 55 115 141q25 58 25 123q0 51 -15 95q-9 35 -38 84q-54 75 -142 114q-58 25 -123 25 q-50 0 -94 -15q-46 -15 -84 -40q-76 -51 -115 -140q-21 -50 -24 -104z" />
<glyph unicode="s" d="M0 399q0 26 17.5 44t43.5 20q25 0 43.5 -18t18.5 -44q0 -78 39 -145q40 -73 104 -111q46 -31 96 -43q36 -8 78 -8q82 0 152 37q71 39 113 102q31 45 43 97q10 31 10 76q0 75 -37 147q-37 67 -105 113q-53 31 -98 41l-174 43q-6 0 -10 2q-112 27 -193 102t-116 176 q-25 70 -25 144q0 52 12 104q12 44 41 104q26 45 66 88q75 78 178 113q70 25 143 25q47 0 107 -13q106 -26 192 -102q80 -77 117 -174q25 -80 25 -141q0 -25 -18 -43.5t-44 -18.5q-25 0 -43 17.5t-18 42.5q0 77 -39 147q-40 69 -105 111q-49 30 -96 41q-45 10 -78 10 q-75 0 -151 -37q-71 -39 -113 -102q-31 -46 -43 -99q-10 -31 -10 -73q0 -79 37 -148q38 -69 104 -113q39 -25 82 -36q3 -3 6 -3l195 -47q112 -27 192 -104q84 -77 117 -176q25 -70 25 -141q0 -47 -13 -107q-13 -47 -41 -102q-24 -43 -65 -88q-78 -81 -178 -115 q-74 -23 -144 -23q-46 0 -106 13q-112 27 -193 102q-79 73 -116 174q-25 80 -25 139z" />
<glyph unicode="t" d="M0 1536v2v2v2v4v2v2v2v2q0 2 2 2v3v2v2v2h2v2v2q0 2 2 2v2q0 2 2 2v2q0 2 2 2v2l2 2l2 2v2h2q0 2 2 2l2 2v2h3q0 2 2 2t2 2h2q0 2 2 2h2q0 3 2 3h2q0 2 2 2h2h2v2h2h2h2h2q0 2 2 2h2h2h2h2h758q41 0 58 -39q4 -12 4 -24q0 -26 -21 -44l-375 -346v-1124q0 -26 -17.5 -44 t-43.5 -18q-25 0 -43.5 18t-18.5 44v1126l-344 346q-2 0 -2 2h-2v2q-2 0 -2 2t-2 2v2h-2v3v2q-2 0 -2 2v2h-2v2v2l-2 2v2v2v2zM209 1485l217 -217l236 217h-453z" />
<glyph unicode="u" d="M0 391v2v17v6v366v13v751q0 26 18 44t43 18q26 0 44 -18t18 -44v-608l653 651q18 20 41 20q12 0 25 -5q39 -16 39 -58v-1136q0 -70 -21 -131q-19 -64 -55 -115q-71 -108 -193 -160q-81 -35 -172 -35q-70 0 -131 21q-63 18 -114 55q-108 71 -160 193q-32 76 -35 153z M123 395q3 -47 14 -80q8 -32 39 -84q54 -76 141 -114q58 -25 123 -25q54 0 95 14q30 8 83 39q77 55 115 142q25 58 25 123v989l-635 -635v-369z" />
<glyph unicode="v" horiz-adv-x="1814" d="M4 1566q8 24 31 36q12 6 25 6q10 0 21 -4q24 -8 36 -31l348 -694l1077 718q16 9 34 9h6q21 -2 36 -15q15 -14 19 -33q1 -6 1 -12q0 -13 -6 -26l-758 -1516q-15 -35 -55 -35t-55 35l-758 1516q-6 12 -6 25q0 11 4 21zM520 768l299 -600l600 1198z" />
<glyph unicode="w" horiz-adv-x="1812" d="M2 1532q-2 8 -2 15q0 15 9 31q13 22 38 28q8 2 15 2q16 0 32 -9q22 -13 27 -38l307 -1278l332 1267q5 20 21 33.5t38 13.5t38.5 -13.5t21.5 -33.5l331 -1267l308 1278q6 25 27 38q14 9 31 9q7 0 15 -2q25 -6 38 -28q9 -15 9 -31q0 -8 -2 -15l-362 -1516q-6 -21 -22.5 -34 t-37.5 -13q-22 0 -38.5 12.5t-22.5 32.5l-334 1278l-336 -1278q-4 -20 -20.5 -32.5t-38.5 -12.5t-38 13.5t-21 33.5z" />
<glyph unicode="x" d="M4 1566q8 24 31 36q12 6 25 6q10 0 21 -4q24 -8 36 -31l319 -639l316 639q10 23 34 31q11 4 22 4q13 0 26 -6q23 -10 30.5 -34.5t-4.5 -47.5l-354 -725l368 -738q6 -14 6 -27q0 -17 -10 -32q-16 -29 -51 -29h-758q-35 0 -51 29q-10 15 -10 32q0 13 6 27l363 738l-363 725 q-6 12 -6 25q0 11 4 21zM160 92h559l-281 565z" />
<glyph unicode="y" horiz-adv-x="1056" d="M8 1573q15 35 55 35h758q30 0 49 -25q13 -18 13 -38q0 -7 -2 -15l-396 -1516q-6 -25 -27 -37q-14 -8 -30 -8q-8 0 -16 2q-25 6 -38 28t-7 48l190 729l-543 733q-13 17 -13 36q0 14 7 28zM186 1485l410 -557l145 557h-555z" />
<glyph unicode="z" d="M0 1546q0 26 17.5 44t43.5 18h758q35 0 51 -29q18 -27 4 -59l-712 -1428h657q26 0 44 -17.5t18 -43.5t-18 -44t-44 -18h-758q-34 0 -53 29q-9 15 -9 31q0 14 7 28l713 1428h-658q-26 0 -43.5 17.5t-17.5 43.5z" />
<glyph unicode="{" horiz-adv-x="659" d="M0 819q0 22 14 39l152 180v539q0 28 18 43q18 18 43 18h197q26 0 43.5 -17.5t17.5 -43.5t-17.5 -43.5t-43.5 -17.5h-135v-500q0 -24 -15 -39l-133 -158l133 -157q15 -15 15 -39v-736h135q26 0 43.5 -17.5t17.5 -43.5t-17.5 -44t-43.5 -18h-197q-24 0 -43 19 q-18 15 -18 43v774l-152 180q-14 17 -14 39z" />
<glyph unicode="|" horiz-adv-x="296" d="M0 -379v1956q0 26 17.5 43.5t43.5 17.5t44 -17.5t18 -43.5v-1956q0 -26 -18 -43.5t-44 -17.5t-43.5 17.5t-17.5 43.5z" />
<glyph unicode="}" horiz-adv-x="661" d="M0 -174q0 26 17.5 43.5t43.5 17.5h136v736q0 21 14 39l133 157l-133 158q-14 17 -14 39v500h-136q-26 0 -43.5 17.5t-17.5 43.5t17.5 43.5t43.5 17.5h197q28 0 43 -18q18 -15 18 -43v-539l152 -180q15 -17 15 -39t-15 -39l-152 -180v-774q0 -28 -18 -43q-16 -19 -43 -19 h-197q-26 0 -43.5 18t-17.5 44z" />
<glyph unicode="~" horiz-adv-x="1032" d="M0 758q0 43 16 86q14 40 47 78q17 23 46 41q42 25 67 32q42 11 72 11q58 0 114 -29q53 -26 93 -82l55 -84l2 -2q17 -23 41 -35q25 -14 59 -14q23 0 35 4q26 10 33 16q16 12 25 21q12 16 16 24q14 31 14 60q0 24 -8 43q-8 25 3 48t34 30q25 9 48 -1.5t32 -35.5 q14 -38 14 -84q0 -42 -16 -88q-15 -41 -45 -78q-23 -23 -47 -41q-32 -22 -68 -31q-29 -10 -70 -10q-62 0 -116 29q-54 28 -93 82q0 2 -4 6l-47 71q-18 27 -47 43q-27 15 -57 15q-13 0 -37 -4q-14 -6 -33 -17q-8 -6 -22 -20q-7 -7 -19 -27q-14 -28 -14 -57q0 -15 8 -47 q9 -23 -1.5 -46t-33.5 -32q-25 -9 -48 1.5t-32 33.5q-16 46 -16 90z" />
<glyph unicode="&#xa1;" horiz-adv-x="354" d="M0 1548q0 11 4 27q3 12 12 24q12 21 39 31q13 8 35 8q11 0 27 -4q12 -3 24 -12q19 -11 33 -39q6 -15 6 -35q0 -10 -4 -26q-3 -14 -12 -25q-11 -19 -39 -33q-15 -6 -35 -6q-11 0 -27 4q-10 2 -24 13q-20 11 -33 38q-6 15 -6 35zM29 61v1266q0 25 17.5 43.5t43.5 18.5 t44 -18.5t18 -43.5v-1266q0 -26 -18 -43.5t-44 -17.5t-43.5 17.5t-17.5 43.5z" />
<glyph unicode="&#xa6;" horiz-adv-x="296" d="M0 61v562q0 25 17.5 43t43.5 18t44 -18t18 -43v-562q0 -26 -18 -43.5t-44 -17.5t-43.5 17.5t-17.5 43.5zM0 1016v561q0 26 17.5 43.5t43.5 17.5t44 -17.5t18 -43.5v-561q0 -25 -18 -43.5t-44 -18.5t-43.5 18.5t-17.5 43.5z" />
<glyph unicode="&#xa8;" horiz-adv-x="886" d="M0 1548q0 11 4 27q3 12 12 24q12 21 39 31q13 8 35 8q11 0 27 -4q12 -3 24 -12q19 -11 33 -39q6 -15 6 -35q0 -10 -4 -26q-3 -14 -12 -25q-11 -19 -39 -33q-15 -6 -35 -6q-11 0 -27 4q-4 1 -24 11q-20 14 -33 40q-6 15 -6 35zM532 1548q0 17 5 27q2 8 10 24q15 21 41 31 q13 8 35 8q10 0 26 -4q15 -4 23 -12q23 -13 33 -39q8 -20 8 -35q0 -10 -4 -26q-12 -23 -13 -25q-15 -21 -39 -33q-15 -6 -34 -6q-11 0 -27 4q-5 1 -25 11q-19 13 -32 40q-7 17 -7 35z" />
<glyph unicode="&#xaa;" horiz-adv-x="860" d="M2 819q0 26 17.5 44t43.5 18h562q25 0 43 -18t18 -44t-18 -43.5t-43 -17.5h-562q-26 0 -43.5 17.5t-17.5 43.5zM8 1044l281 560q15 34 55 34t55 -34l281 -560q11 -23 2.5 -47t-31.5 -36q-23 -11 -47.5 -3t-34.5 31l-108 217l-363 -241q-19 -11 -39.5 -9t-35.5 15 q-34 31 -15 73zM221 1196l185 121l-62 123z" />
<glyph unicode="&#xab;" horiz-adv-x="1056" d="M1 819q0 24 17 41l363 395q19 19 44 20.5t44 -15.5q19 -19 20 -44.5t-16 -44.5l-326 -352l326 -352q17 -19 16 -44t-20 -44q-19 -17 -44 -16t-44 20l-363 395q-17 17 -17 41zM365 819q0 25 18 43l395 395q17 17 42 17t44 -17q19 -19 19 -44t-19 -44l-350 -350l350 -350 q19 -19 19 -44t-19 -44q-19 -17 -44 -17t-42 17l-395 395q-18 18 -18 43z" />
<glyph unicode="&#xad;" d="M0 819q0 26 17.5 44t43.5 18h758q26 0 44 -18t18 -44t-18 -43.5t-44 -17.5h-758q-26 0 -43.5 17.5t-17.5 43.5z" />
<glyph unicode="&#xb4;" horiz-adv-x="462" d="M-1 1410q0 25 19 44l166 166q19 19 44 19t42 -19q19 -19 19 -44t-19 -42l-166 -168q-17 -17 -42 -17t-44 17q-19 19 -19 44z" />
<glyph unicode="&#xba;" horiz-adv-x="858" d="M0 819q0 26 17.5 44t43.5 18h562q25 0 43 -18t18 -44t-18 -43.5t-43 -17.5h-562q-26 0 -43.5 17.5t-17.5 43.5zM0 1296q0 45 14 103q15 46 43 88q55 82 152 125q67 26 133 26q50 0 100 -16q40 -10 90 -43q84 -57 125 -149q27 -69 27 -134q0 -49 -16 -102q-15 -46 -43 -88 q-56 -83 -150 -125q-69 -27 -133 -27q-46 0 -102 17q-46 15 -88 43q-84 57 -125 149q-27 69 -27 133zM123 1296q0 -32 10 -65q9 -30 27 -57q39 -55 96 -78q43 -19 86 -19q33 0 66 10q18 5 57 27q55 39 78 96q18 40 18 86q0 33 -10 66q-7 25 -29 57q-35 53 -96 80 q-42 17 -84 17q-29 0 -66 -11q-22 -7 -57 -26q-57 -41 -80 -97q-16 -43 -16 -86z" />
<glyph unicode="&#xbb;" horiz-adv-x="1056" d="M-1 425q0 25 19 44l351 350l-351 350q-19 19 -19 44t19 44q19 17 44 17t42 -17l396 -395q18 -18 18 -43t-18 -43l-396 -395q-17 -17 -42 -17t-44 17q-19 19 -19 44zM394 423q-1 25 16 44l325 352l-325 352q-17 19 -16 44.5t20 44.5q19 17 44 15.5t44 -20.5l362 -395 q17 -17 17 -41t-17 -41l-362 -395q-19 -19 -44 -20t-44 16q-19 19 -20 44z" />
<glyph unicode="&#xbf;" horiz-adv-x="997" d="M0 172q0 102 49 195q53 92 135 145q58 36 121 53q4 0 6 2l135 33q53 12 91 47t53 82q12 30 12 66q0 23 -6 47q-6 29 -18 49q-11 19 -31 39q-35 38 -82 53q-35 12 -68 12q-25 0 -49 -6q-44 -10 -90 -47q-38 -35 -53 -82q-12 -30 -12 -63q0 -26 -18.5 -44t-43.5 -18 q-26 0 -43.5 18.5t-17.5 45.5q0 80 41 151q40 73 106 115q57 33 102 43q42 10 78 10q83 0 156 -39q69 -37 117 -106q34 -49 45 -101q10 -45 10 -77q0 -84 -39 -154q-43 -75 -108 -117q-49 -32 -101 -43l-129 -32q-3 0 -6 -3q-76 -19 -127 -67q-54 -48 -76 -115 q-16 -46 -16 -92q0 -37 8 -68q6 -25 27 -67q16 -27 43 -57q50 -54 116 -74q49 -17 95 -17q32 0 69 9q76 19 127 67q52 49 76 113q16 46 16 92q0 25 18 42t44 17t43.5 -17.5t17.5 -43.5q-3 -103 -51 -191q-53 -92 -135 -145q-56 -38 -127 -53q-50 -12 -98 -12q-110 0 -195 49 q-91 48 -149 133q-37 55 -56 125q-12 50 -12 98zM311 1313q0 10 4 26q3 11 13 25q11 19 39 33q15 6 34 6q11 0 27 -4q13 -3 23 -13q23 -13 32 -38q6 -15 6 -35q0 -19 -4 -27q-3 -11 -10 -22q-18 -25 -39 -33q-15 -6 -35 -6q-18 0 -26 4q-10 3 -25 10q-21 15 -33 39 q-6 15 -6 35z" />
<glyph unicode="&#xc0;" horiz-adv-x="1814" d="M3.5 18q-4.5 20 4.5 39l758 1516q15 35 55 35q41 0 56 -35l757 -1516q11 -22 3 -46t-31 -36q-22 -11 -46 -2.5t-36 31.5l-348 694l-1078 -718q-41 -26 -75 4q-15 14 -19.5 34zM221 211l899 598l-299 600zM679 1955q0 25 19 44t44 19t42 -19l166 -166q19 -19 19 -44 t-19 -44q-17 -17 -42 -17t-44 17l-166 168q-19 17 -19 42z" />
<glyph unicode="&#xc1;" horiz-adv-x="1814" d="M3.5 18q-4.5 20 4.5 39l758 1516q15 35 55 35q41 0 56 -35l757 -1516q11 -22 3 -46t-31 -36q-22 -11 -46 -2.5t-36 31.5l-348 694l-1078 -718q-41 -26 -75 4q-15 14 -19.5 34zM221 211l899 598l-299 600zM677 1813.5q0 25.5 19 44.5l166 165q19 19 44 19t42 -19 q19 -19 19 -44t-19 -42l-166 -168q-17 -17 -42 -17t-44 17q-19 19 -19 44.5z" />
<glyph unicode="&#xc2;" horiz-adv-x="1814" d="M3.5 18q-4.5 20 4.5 39l758 1516q15 35 55 35q41 0 56 -35l757 -1516q11 -22 3 -46t-31 -36q-22 -11 -46 -2.5t-36 31.5l-348 694l-1078 -718q-41 -26 -75 4q-15 14 -19.5 34zM221 211l899 598l-299 600zM559 1825.5q3 25.5 23 42.5l196 166q17 14 39 14t41 -14l197 -166 q19 -17 21 -42.5t-15 -45.5q-15 -19 -40.5 -21t-45.5 15l-158 133l-158 -133q-19 -17 -44 -15t-42 21q-17 20 -14 45.5z" />
<glyph unicode="&#xc3;" horiz-adv-x="1814" d="M3.5 18q-4.5 20 4.5 39l758 1516q15 35 55 35q41 0 56 -35l757 -1516q11 -22 3 -46t-31 -36q-22 -11 -46 -2.5t-36 31.5l-348 694l-1078 -718q-41 -26 -75 4q-15 14 -19.5 34zM221 211l899 598l-299 600zM530 1853q0 31 13 64q9 31 32 57q11 11 35 31q18 13 49 23 q32 8 52 8q40 0 84 -23q41 -18 65 -59l37 -53q7 -10 18 -17q12 -6 27 -6q12 0 16 2q3 1 8.5 3t8.5 3l10 10q1 2 4 6.5t4 6.5q6 12 6 26q0 9 -4 21q-8 25 3.5 48t35.5 30q23 9 46 -1.5t32 -35.5q10 -33 10 -62q0 -33 -12 -63q-8 -26 -33 -55q-18 -21 -35 -31q-22 -16 -47 -25 q-27 -6 -53 -6q-44 0 -84 21q-42 24 -65 59q-1 1 -2.5 3t-2.5 3l-28 45q-9 12 -23 19q-11 8 -26 8q-5 0 -17 -4q-8 0 -14 -6q-2 -1 -12 -11q-1 -1 -4 -4.5t-5 -5.5q-6 -12 -6 -29q0 -8 4 -20q9 -25 -1 -48t-33 -32q-25 -9 -48 1.5t-32 35.5q-13 32 -13 63zM610 2005z" />
<glyph unicode="&#xc4;" horiz-adv-x="1814" d="M3.5 18q-4.5 20 4.5 39l758 1516q15 35 55 35q41 0 56 -35l757 -1516q11 -22 3 -46t-31 -36q-22 -11 -46 -2.5t-36 31.5l-348 694l-1078 -718q-41 -26 -75 4q-15 14 -19.5 34zM221 211l899 598l-299 600zM463 1958q0 11 4 27q3 12 12 24q12 21 39 31q13 8 35 8 q11 0 27 -4q12 -3 24 -12q19 -11 33 -39q6 -15 6 -35q0 -11 -4 -27q-3 -12 -12 -24q-11 -19 -39 -33q-15 -6 -35 -6q-11 0 -27 4q-8 2 -24 10q-19 14 -33 41q-6 15 -6 35zM995 1958q0 19 4 27q1 4 11 24q15 21 41 31q13 8 34 8q11 0 27 -4q15 -4 23 -12q22 -13 32 -39 q9 -23 9 -35q0 -7 -5 -27l-12 -24q-15 -21 -39 -33q-15 -6 -35 -6q-10 0 -26 4q-8 2 -25 10q-19 14 -33 41q-6 15 -6 35z" />
<glyph unicode="&#xc7;" horiz-adv-x="1449" d="M0 819q0 129 37 244q39 118 102 215q137 201 361 297q151 63 319 63q117 0 225 -30q103 -29 201 -88q22 -14 28 -38.5t-7 -47.5q-13 -21 -37.5 -27t-46.5 6q-86 53 -172 76q-100 27 -191 27q-105 0 -207 -31q-93 -28 -182 -88q-172 -118 -252 -307q-55 -129 -55 -271 q0 -105 31 -207q28 -93 88 -182q120 -176 307 -252q122 -55 270 -55q103 0 191 27q86 22 172 73q22 14 46.5 8.5t37.5 -28.5q13 -22 7 -46t-28 -38q-98 -59 -201 -88q-112 -31 -225 -31q-68 0 -157 14l-189 -227q-17 -20 -42.5 -22.5t-45.5 14.5q-19 15 -21 40.5t13 45.5 l155 186q-90 34 -172 88q-201 137 -297 361q-63 151 -63 319z" />
<glyph unicode="&#xc8;" horiz-adv-x="1056" d="M2 399q1 20 13.5 34.5t31.5 19.5l531 139l-531 137q-20 4 -32.5 20.5t-12.5 38.5t12.5 39t32.5 21l531 137l-531 137q-42 13 -45 56q-3 42 35 59l758 365q23 11 47.5 2.5t34.5 -31.5q11 -23 2.5 -47.5t-31.5 -34.5l-606 -291l596 -156q20 -4 32.5 -20.5t12.5 -38.5 q0 -20 -12.5 -36.5t-32.5 -22.5l-531 -138l531 -137q20 -6 32.5 -22.5t12.5 -36.5q0 -22 -12.5 -39t-32.5 -21l-596 -155l606 -291q23 -10 31.5 -34.5t-2.5 -47.5q-10 -23 -34.5 -31.5t-47.5 2.5l-758 363q-38 20 -35 61zM300 1955q0 25 19 44t44.5 19t42.5 -19l165 -166 q19 -19 19 -44t-19 -44q-17 -17 -42 -17t-44 17l-166 168q-19 17 -19 42z" />
<glyph unicode="&#xc9;" horiz-adv-x="1056" d="M2 399q1 20 13.5 34.5t31.5 19.5l531 139l-531 137q-20 4 -32.5 20.5t-12.5 38.5t12.5 39t32.5 21l531 137l-531 137q-42 13 -45 56q-3 42 35 59l758 365q23 11 47.5 2.5t34.5 -31.5q11 -23 2.5 -47.5t-31.5 -34.5l-606 -291l596 -156q20 -4 32.5 -20.5t12.5 -38.5 q0 -20 -12.5 -36.5t-32.5 -22.5l-531 -138l531 -137q20 -6 32.5 -22.5t12.5 -36.5q0 -22 -12.5 -39t-32.5 -21l-596 -155l606 -291q23 -10 31.5 -34.5t-2.5 -47.5q-10 -23 -34.5 -31.5t-47.5 2.5l-758 363q-38 20 -35 61zM294 1820q0 25 19 44l166 166q19 19 44 19t42 -19 q19 -19 19 -44t-19 -42l-166 -168q-17 -17 -42 -17t-44 17q-19 19 -19 44z" />
<glyph unicode="&#xca;" horiz-adv-x="1056" d="M2 399q1 20 13.5 34.5t31.5 19.5l531 139l-531 137q-20 4 -32.5 20.5t-12.5 38.5t12.5 39t32.5 21l531 137l-531 137q-42 13 -45 56q-3 42 35 59l758 365q23 11 47.5 2.5t34.5 -31.5q11 -23 2.5 -47.5t-31.5 -34.5l-606 -291l596 -156q20 -4 32.5 -20.5t12.5 -38.5 q0 -20 -12.5 -36.5t-32.5 -22.5l-531 -138l531 -137q20 -6 32.5 -22.5t12.5 -36.5q0 -22 -12.5 -39t-32.5 -21l-596 -155l606 -291q23 -10 31.5 -34.5t-2.5 -47.5q-10 -23 -34.5 -31.5t-47.5 2.5l-758 363q-38 20 -35 61zM184.5 1825.5q2.5 25.5 22.5 42.5l196 166 q17 14 39 14t41 -14l197 -166q19 -17 21 -42.5t-15 -45.5q-15 -19 -40.5 -21t-45.5 15l-158 133l-157 -133q-19 -17 -44 -15t-42 21q-17 20 -14.5 45.5z" />
<glyph unicode="&#xcb;" horiz-adv-x="1056" d="M2 399q1 20 13.5 34.5t31.5 19.5l531 139l-531 137q-20 4 -32.5 20.5t-12.5 38.5t12.5 39t32.5 21l531 137l-531 137q-42 13 -45 56q-3 42 35 59l758 365q23 11 47.5 2.5t34.5 -31.5q11 -23 2.5 -47.5t-31.5 -34.5l-606 -291l596 -156q20 -4 32.5 -20.5t12.5 -38.5 q0 -20 -12.5 -36.5t-32.5 -22.5l-531 -138l531 -137q20 -6 32.5 -22.5t12.5 -36.5q0 -22 -12.5 -39t-32.5 -21l-596 -155l606 -291q23 -10 31.5 -34.5t-2.5 -47.5q-10 -23 -34.5 -31.5t-47.5 2.5l-758 363q-38 20 -35 61zM86 1958q0 11 4 27q3 12 12 24q12 21 39 31 q13 8 35 8q11 0 27 -4q12 -3 24 -12q19 -11 33 -39q6 -15 6 -35q0 -11 -4 -27q-3 -12 -12 -24q-11 -19 -39 -33q-15 -6 -35 -6q-10 0 -26 4q-10 2 -25 10q-19 14 -33 41q-6 15 -6 35zM618 1958q0 17 5 27q2 8 10 24q15 21 41 31q13 8 35 8q10 0 26 -4q15 -4 23 -12 q23 -13 33 -39q8 -20 8 -35q0 -11 -4 -27q-10 -20 -13 -24q-15 -21 -39 -33q-15 -6 -34 -6q-11 0 -27 4q-8 2 -25 10q-18 13 -32 41q-7 17 -7 35z" />
<glyph unicode="&#xcc;" horiz-adv-x="462" d="M-1 1955q0 25 19 44t44 19t42 -19l166 -166q19 -19 19 -44t-19 -44q-17 -17 -42 -17t-44 17l-166 168q-19 17 -19 42zM82 31v1515q0 26 17.5 44t43.5 18t44 -18t18 -44v-1515q0 -26 -18 -44t-44 -18t-43.5 18t-17.5 44z" />
<glyph unicode="&#xcd;" horiz-adv-x="462" d="M-1 1820q0 25 19 44l166 166q19 19 44 19t42 -19q19 -19 19 -44t-19 -42l-166 -168q-17 -17 -42 -17t-44 17q-19 19 -19 44zM84 31v1515q0 26 17.5 44t43.5 18t44 -18t18 -44v-1515q0 -26 -18 -44t-44 -18t-43.5 18t-17.5 44z" />
<glyph unicode="&#xce;" horiz-adv-x="694" d="M2 1825.5q3 25.5 23 42.5l196 166q17 14 39 14t41 -14l197 -166q19 -17 21 -42.5t-15 -45.5q-15 -19 -40.5 -21t-45.5 15l-158 133l-158 -133q-19 -17 -44 -15t-42 21q-17 20 -14 45.5zM203 31v1515q0 26 17.5 44t43.5 18t44 -18t18 -44v-1515q0 -26 -18 -44t-44 -18 t-43.5 18t-17.5 44z" />
<glyph unicode="&#xcf;" horiz-adv-x="886" d="M0 1958q0 11 4 27q3 12 12 24q12 21 39 31q13 8 35 8q11 0 27 -4q12 -3 24 -12q19 -11 33 -39q6 -15 6 -35q0 -11 -4 -27q-3 -12 -12 -24q-11 -19 -39 -33q-15 -6 -35 -6q-11 0 -27 4q-8 2 -24 10q-19 14 -33 41q-6 15 -6 35zM297 31v1515q0 26 17.5 44t43.5 18t44 -18 t18 -44v-1515q0 -26 -18 -44t-44 -18t-43.5 18t-17.5 44zM532 1958q0 17 5 27q2 8 10 24q15 21 41 31q13 8 35 8q10 0 26 -4q15 -4 23 -12q23 -13 33 -39q8 -20 8 -35q0 -11 -4 -27q-10 -20 -13 -24q-15 -21 -39 -33q-15 -6 -34 -6q-11 0 -27 4q-8 2 -25 10q-18 13 -32 41 q-7 17 -7 35z" />
<glyph unicode="&#xd0;" horiz-adv-x="1585" d="M0 819q0 26 17.5 44t43.5 18h105v604q0 37 33 53q86 50 186 74q95 26 207 26q132 0 244 -36q111 -36 213 -103q205 -141 297 -360q65 -155 65 -320q0 -125 -37 -237q-37 -121 -98 -211q-127 -196 -344 -297q-149 -68 -307 -74q-32 0 -52 23q-19 25 -12 55l178 680h-450 v-697q0 -26 -18 -43.5t-44 -17.5q-25 0 -43 17.5t-18 43.5v697h-105q-26 0 -43.5 17.5t-17.5 43.5zM289 881h530q30 0 49 -25q17 -24 11 -53l-177 -672q57 8 117 31q91 29 174 90q170 122 242 303q53 121 53 264q0 98 -33 207q-30 99 -86 182q-118 172 -307 252 q-134 56 -270 56q-86 0 -176 -23q-59 -14 -127 -47v-565z" />
<glyph unicode="&#xd1;" d="M-31 31v1515q0 22 13.5 38.5t33.5 21.5q22 5 41.5 -4t28.5 -29l641 -1282v1255q0 26 17.5 44t43.5 18t44 -18t18 -44v-1515v-4v-2v-5h-2v-6q0 -2 -2 -4q0 -2 -2 -4v-2q0 -2 -2 -2v-2q0 -2 -2 -2q0 -2 -2 -2v-2l-2 -2v-2q-1 0 -2.5 -1t-2.5 -1v-2q-2 0 -4 -2l-2 -2l-2 -2 q-2 0 -2 -3h-4v-2q-4 0 -4 -2q-4 0 -6 -2h-4q-2 0 -2 -2h-2h-2h-11h-755q-27 0 -43 19q-19 16 -19 43zM92 92h596l-596 1194v-1194zM145 1864q0 30 13 63q10 33 32 58q5 5 35 30q18 13 49 23q32 8 52 8q40 0 84 -23q41 -18 65 -59l37 -53q7 -10 18 -17q12 -6 27 -6 q12 0 16 2q3 1 8.5 3t8.5 3q2 2 5 5.5t5 5.5q1 2 4 6t4 6q6 12 6 27q0 8 -4 20q-8 25 3.5 48t35.5 30q23 9 46 -1.5t32 -35.5q10 -33 10 -61q0 -34 -12 -64q-8 -26 -33 -55q-18 -21 -35 -31q-19 -13 -47 -24q-31 -7 -53 -7q-43 0 -84 21q-42 24 -65 59q-1 1 -2.5 3t-2.5 3 l-28 45q-9 12 -23 19q-11 8 -26 8q-5 0 -17 -4q-8 0 -14 -6q-4 -2 -12 -10q-1 -1 -4 -5t-5 -6q-6 -12 -6 -28q0 -9 4 -21q9 -25 -1 -48t-33 -32q-25 -9 -48 1.5t-32 35.5q-13 32 -13 64zM225 2015z" />
<glyph unicode="&#xd2;" horiz-adv-x="1812" d="M0 788q0 129 37 244q39 118 102 215q137 201 361 297q153 64 319 64q129 0 244 -37q112 -36 215 -103q200 -138 297 -360q63 -151 63 -320q0 -131 -36 -243t-103 -215q-135 -200 -360 -297q-153 -64 -320 -64q-129 0 -244 37q-112 36 -215 103q-202 138 -297 360 q-63 151 -63 319zM123 788q0 -104 31 -206q29 -95 88 -183q120 -176 307 -252q122 -55 270 -55q105 0 207 31q93 28 182 88q176 120 252 307q56 124 56 270q0 105 -31 207q-29 95 -88 183q-118 172 -307 252q-129 55 -271 55q-105 0 -207 -31q-93 -28 -182 -88 q-172 -118 -252 -307q-55 -129 -55 -271zM673 1955q0 25 19 44t44 19t42 -19l166 -166q19 -19 19 -44t-19 -44q-17 -17 -42 -17t-44 17l-166 168q-19 17 -19 42z" />
<glyph unicode="&#xd3;" horiz-adv-x="1812" d="M0 788q0 129 37 244q39 118 102 215q137 201 361 297q153 64 319 64q129 0 244 -37q112 -36 215 -103q200 -138 297 -360q63 -151 63 -320q0 -131 -36 -243t-103 -215q-135 -200 -360 -297q-153 -64 -320 -64q-129 0 -244 37q-112 36 -215 103q-202 138 -297 360 q-63 151 -63 319zM123 788q0 -104 31 -206q29 -95 88 -183q120 -176 307 -252q122 -55 270 -55q105 0 207 31q93 28 182 88q176 120 252 307q56 124 56 270q0 105 -31 207q-29 95 -88 183q-118 172 -307 252q-129 55 -271 55q-105 0 -207 -31q-93 -28 -182 -88 q-172 -118 -252 -307q-55 -129 -55 -271zM671 1820q0 25 19 44l166 166q19 19 44 19t42 -19q19 -19 19 -44t-19 -42l-166 -168q-17 -17 -42 -17t-44 17q-19 19 -19 44z" />
<glyph unicode="&#xd4;" horiz-adv-x="1812" d="M0 788q0 129 37 244q39 118 102 215q137 201 361 297q153 64 319 64q129 0 244 -37q112 -36 215 -103q200 -138 297 -360q63 -151 63 -320q0 -131 -36 -243t-103 -215q-135 -200 -360 -297q-153 -64 -320 -64q-129 0 -244 37q-112 36 -215 103q-202 138 -297 360 q-63 151 -63 319zM123 788q0 -104 31 -206q29 -95 88 -183q120 -176 307 -252q122 -55 270 -55q105 0 207 31q93 28 182 88q176 120 252 307q56 124 56 270q0 105 -31 207q-29 95 -88 183q-118 172 -307 252q-129 55 -271 55q-105 0 -207 -31q-93 -28 -182 -88 q-172 -118 -252 -307q-55 -129 -55 -271zM559 1825.5q3 25.5 23 42.5l196 166q17 14 39 14t41 -14l197 -166q19 -17 21 -42.5t-15 -45.5q-15 -19 -40.5 -21t-45.5 15l-158 133l-158 -133q-19 -17 -44 -15t-42 21q-17 20 -14 45.5z" />
<glyph unicode="&#xd5;" horiz-adv-x="1812" d="M0 788q0 129 37 244q39 118 102 215q137 201 361 297q153 64 319 64q129 0 244 -37q112 -36 215 -103q200 -138 297 -360q63 -151 63 -320q0 -131 -36 -243t-103 -215q-135 -200 -360 -297q-153 -64 -320 -64q-129 0 -244 37q-112 36 -215 103q-202 138 -297 360 q-63 151 -63 319zM123 788q0 -104 31 -206q29 -95 88 -183q120 -176 307 -252q122 -55 270 -55q105 0 207 31q93 28 182 88q176 120 252 307q56 124 56 270q0 105 -31 207q-29 95 -88 183q-118 172 -307 252q-129 55 -271 55q-105 0 -207 -31q-93 -28 -182 -88 q-172 -118 -252 -307q-55 -129 -55 -271zM524 1864q0 30 13 63q10 33 32 58q5 5 35 30q18 13 49 23q32 8 52 8q39 0 83 -23q42 -19 66 -59l37 -53q7 -10 18 -17q12 -6 27 -6q12 0 16 2q3 1 8.5 3t8.5 3q2 2 5 5.5t5 5.5q1 2 4 6t4 6q6 12 6 27q0 8 -4 20q-8 25 3.5 48 t35.5 30q23 9 46 -1.5t32 -35.5q10 -33 10 -61q0 -34 -12 -64q-8 -26 -33 -55q-17 -21 -35 -31q-19 -13 -47 -24q-31 -7 -53 -7q-44 0 -84 21q-44 25 -66 59q-1 1 -2 3t-2 3l-28 45q-9 12 -23 19q-11 8 -26 8q-5 0 -17 -4q-8 0 -14 -6q-4 -2 -12 -10q-1 -1 -4 -5t-5 -6 q-6 -12 -6 -28q0 -9 4 -21q9 -25 -1.5 -48t-33.5 -32q-25 -9 -47.5 1.5t-31.5 35.5q-13 32 -13 64zM604 2015z" />
<glyph unicode="&#xd6;" horiz-adv-x="1812" d="M0 788q0 129 37 244q39 118 102 215q137 201 361 297q153 64 319 64q129 0 244 -37q112 -36 215 -103q200 -138 297 -360q63 -151 63 -320q0 -131 -36 -243t-103 -215q-135 -200 -360 -297q-153 -64 -320 -64q-129 0 -244 37q-112 36 -215 103q-202 138 -297 360 q-63 151 -63 319zM123 788q0 -104 31 -206q29 -95 88 -183q120 -176 307 -252q122 -55 270 -55q105 0 207 31q93 28 182 88q176 120 252 307q56 124 56 270q0 105 -31 207q-29 95 -88 183q-118 172 -307 252q-129 55 -271 55q-105 0 -207 -31q-93 -28 -182 -88 q-172 -118 -252 -307q-55 -129 -55 -271zM463 1958q0 11 4 27q3 12 12 24q12 21 39 31q13 8 35 8q11 0 27 -4q12 -3 24 -12q19 -11 33 -39q6 -15 6 -35q0 -11 -4 -27q-3 -12 -12 -24q-11 -19 -39 -33q-15 -6 -35 -6q-11 0 -27 4q-8 2 -24 10q-19 14 -33 41q-6 15 -6 35z M995 1958q0 19 4 27q1 4 11 24q15 21 41 31q13 8 34 8q11 0 27 -4q15 -4 23 -12q22 -13 32 -39q9 -23 9 -35q0 -7 -5 -27l-12 -24q-15 -21 -39 -33q-15 -6 -35 -6q-10 0 -26 4q-8 2 -25 10q-19 14 -33 41q-6 15 -6 35z" />
<glyph unicode="&#xd7;" horiz-adv-x="1058" d="M1 423q0 25 17 44l338 352l-338 352q-17 19 -17 44t19 42q19 19 44.5 18t44.5 -20l333 -348l334 348q19 19 44 20t44 -18q19 -17 19 -42t-17 -44l-338 -352l338 -352q17 -19 17 -44t-19 -42q-19 -19 -44 -18t-44 20l-334 348l-333 -348q-19 -19 -44.5 -20t-44.5 18 q-19 17 -19 42z" />
<glyph unicode="&#xd9;" d="M0 391v2v17v6v366v13v751q0 26 18 44t43 18q26 0 44 -18t18 -44v-608l653 651q26 29 66 15q39 -16 39 -58v-1136q0 -70 -21 -131q-19 -64 -55 -115q-71 -108 -193 -160q-81 -35 -172 -35q-70 0 -131 21q-63 18 -114 55q-108 71 -160 193q-32 76 -35 153zM123 395 q3 -47 14 -80q8 -32 39 -84q54 -76 141 -114q58 -25 123 -25q54 0 95 14q30 8 83 39q77 55 115 142q25 58 25 123v989l-635 -635v-369zM294 1955q0 25 19 44t44 19t42 -19l166 -166q19 -19 19 -44t-19 -44q-17 -17 -42 -17t-44 17l-166 168q-19 17 -19 42z" />
<glyph unicode="&#xda;" d="M0 391v2v17v6v366v13v751q0 26 18 44t43 18q26 0 44 -18t18 -44v-608l653 651q26 29 66 15q39 -16 39 -58v-1136q0 -70 -21 -131q-19 -64 -55 -115q-71 -108 -193 -160q-81 -35 -172 -35q-70 0 -131 21q-63 18 -114 55q-108 71 -160 193q-32 76 -35 153zM123 395 q3 -47 14 -80q8 -32 39 -84q54 -76 141 -114q58 -25 123 -25q54 0 95 14q30 8 83 39q77 55 115 142q25 58 25 123v989l-635 -635v-369zM294 1820q0 25 19 44l166 166q19 19 44 19t42 -19q19 -19 19 -44t-19 -42l-166 -168q-17 -17 -42 -17t-44 17q-19 19 -19 44z" />
<glyph unicode="&#xdb;" d="M0 391v2v17v6v366v13v751q0 26 18 44t43 18q26 0 44 -18t18 -44v-608l653 651q26 29 66 15q39 -16 39 -58v-1136q0 -70 -21 -131q-19 -64 -55 -115q-71 -108 -193 -160q-81 -35 -172 -35q-70 0 -131 21q-63 18 -114 55q-108 71 -160 193q-32 76 -35 153zM123 395 q3 -47 14 -80q8 -32 39 -84q54 -76 141 -114q58 -25 123 -25q54 0 95 14q30 8 83 39q77 55 115 142q25 58 25 123v989l-635 -635v-369zM180.5 1825.5q2.5 25.5 22.5 42.5l196 166q17 14 39 14t41 -14l197 -166q19 -17 21 -42.5t-15 -45.5q-15 -19 -40.5 -21t-45.5 15 l-158 133l-157 -133q-19 -17 -44 -15t-42 21q-17 20 -14.5 45.5z" />
<glyph unicode="&#xdc;" d="M0 391v2v17v6v366v13v751q0 26 18 44t43 18q26 0 44 -18t18 -44v-608l653 651q26 29 66 15q39 -16 39 -58v-1136q0 -70 -21 -131q-19 -64 -55 -115q-71 -108 -193 -160q-81 -35 -172 -35q-70 0 -131 21q-63 18 -114 55q-108 71 -160 193q-32 76 -35 153zM82 1958 q0 11 4 27q3 12 12 24q12 21 39 31q13 8 35 8q11 0 27 -4q12 -3 24 -12q19 -11 33 -39q6 -15 6 -35q0 -11 -4 -27q-3 -12 -12 -24q-11 -19 -39 -33q-15 -6 -35 -6q-11 0 -27 4q-8 2 -24 10q-19 14 -33 41q-6 15 -6 35zM123 395q3 -47 14 -80q8 -32 39 -84q54 -76 141 -114 q58 -25 123 -25q54 0 95 14q30 8 83 39q77 55 115 142q25 58 25 123v989l-635 -635v-369zM614 1958q0 19 4 27q1 4 11 24q15 21 41 31q13 8 35 8q10 0 26 -4q15 -4 23 -12q22 -13 32 -39q9 -23 9 -35q0 -11 -4 -27q-10 -20 -13 -24q-15 -21 -39 -33q-15 -6 -34 -6 q-11 0 -27 4q-8 2 -25 10q-18 13 -32 41q-7 17 -7 35z" />
<glyph unicode="&#xdd;" horiz-adv-x="1056" d="M8 1573q15 35 55 35h758q30 0 49 -25q17 -24 11 -53l-396 -1516q-6 -25 -27 -37t-46 -6t-38 28t-7 48l190 729l-543 733q-23 30 -6 64zM186 1485l410 -557l145 557h-555zM296 1820q0 25 19 44l166 166q19 19 44 19t42 -19q19 -19 19 -44t-19 -42l-166 -168 q-17 -17 -42 -17t-44 17q-19 19 -19 44z" />
<glyph unicode="&#xe0;" horiz-adv-x="1814" d="M3.5 18q-4.5 20 4.5 39l758 1516q15 35 55 35q41 0 56 -35l757 -1516q11 -22 3 -46t-31 -36q-22 -11 -46 -2.5t-36 31.5l-348 694l-1078 -718q-41 -26 -75 4q-15 14 -19.5 34zM221 211l899 598l-299 600zM679 1955q0 25 19 44t44 19t42 -19l166 -166q19 -19 19 -44 t-19 -44q-17 -17 -42 -17t-44 17l-166 168q-19 17 -19 42z" />
<glyph unicode="&#xe1;" horiz-adv-x="1814" d="M3.5 18q-4.5 20 4.5 39l758 1516q15 35 55 35q41 0 56 -35l757 -1516q11 -22 3 -46t-31 -36q-22 -11 -46 -2.5t-36 31.5l-348 694l-1078 -718q-41 -26 -75 4q-15 14 -19.5 34zM221 211l899 598l-299 600zM677 1813.5q0 25.5 19 44.5l166 165q19 19 44 19t42 -19 q19 -19 19 -44t-19 -42l-166 -168q-17 -17 -42 -17t-44 17q-19 19 -19 44.5z" />
<glyph unicode="&#xe2;" horiz-adv-x="1814" d="M3.5 18q-4.5 20 4.5 39l758 1516q15 35 55 35q41 0 56 -35l757 -1516q11 -22 3 -46t-31 -36q-22 -11 -46 -2.5t-36 31.5l-348 694l-1078 -718q-41 -26 -75 4q-15 14 -19.5 34zM221 211l899 598l-299 600zM559 1825.5q3 25.5 23 42.5l196 166q17 14 39 14t41 -14l197 -166 q19 -17 21 -42.5t-15 -45.5q-15 -19 -40.5 -21t-45.5 15l-158 133l-158 -133q-19 -17 -44 -15t-42 21q-17 20 -14 45.5z" />
<glyph unicode="&#xe3;" horiz-adv-x="1814" d="M3.5 18q-4.5 20 4.5 39l758 1516q15 35 55 35q41 0 56 -35l757 -1516q11 -22 3 -46t-31 -36q-22 -11 -46 -2.5t-36 31.5l-348 694l-1078 -718q-41 -26 -75 4q-15 14 -19.5 34zM221 211l899 598l-299 600zM530 1853q0 31 13 64q9 31 32 57q11 11 35 31q18 13 49 23 q32 8 52 8q40 0 84 -23q41 -18 65 -59l37 -53q7 -10 18 -17q12 -6 27 -6q12 0 16 2q3 1 8.5 3t8.5 3l10 10q1 2 4 6.5t4 6.5q6 12 6 26q0 9 -4 21q-8 25 3.5 48t35.5 30q23 9 46 -1.5t32 -35.5q10 -33 10 -62q0 -33 -12 -63q-8 -26 -33 -55q-18 -21 -35 -31q-22 -16 -47 -25 q-27 -6 -53 -6q-44 0 -84 21q-42 24 -65 59q-1 1 -2.5 3t-2.5 3l-28 45q-9 12 -23 19q-11 8 -26 8q-5 0 -17 -4q-8 0 -14 -6q-2 -1 -12 -11q-1 -1 -4 -4.5t-5 -5.5q-6 -12 -6 -29q0 -8 4 -20q9 -25 -1 -48t-33 -32q-25 -9 -48 1.5t-32 35.5q-13 32 -13 63zM610 2005z" />
<glyph unicode="&#xe4;" horiz-adv-x="1814" d="M3.5 18q-4.5 20 4.5 39l758 1516q15 35 55 35q41 0 56 -35l757 -1516q11 -22 3 -46t-31 -36q-22 -11 -46 -2.5t-36 31.5l-348 694l-1078 -718q-41 -26 -75 4q-15 14 -19.5 34zM221 211l899 598l-299 600zM463 1958q0 11 4 27q3 12 12 24q12 21 39 31q13 8 35 8 q11 0 27 -4q12 -3 24 -12q19 -11 33 -39q6 -15 6 -35q0 -11 -4 -27q-3 -12 -12 -24q-11 -19 -39 -33q-15 -6 -35 -6q-11 0 -27 4q-8 2 -24 10q-19 14 -33 41q-6 15 -6 35zM995 1958q0 19 4 27q1 4 11 24q15 21 41 31q13 8 34 8q11 0 27 -4q15 -4 23 -12q22 -13 32 -39 q9 -23 9 -35q0 -7 -5 -27l-12 -24q-15 -21 -39 -33q-15 -6 -35 -6q-10 0 -26 4q-8 2 -25 10q-19 14 -33 41q-6 15 -6 35z" />
<glyph unicode="&#xe7;" horiz-adv-x="1449" d="M0 819q0 129 37 244q39 118 102 215q137 201 361 297q151 63 319 63q117 0 225 -30q103 -29 201 -88q22 -14 28 -38.5t-7 -47.5q-13 -21 -37.5 -27t-46.5 6q-86 53 -172 76q-100 27 -191 27q-105 0 -207 -31q-93 -28 -182 -88q-172 -118 -252 -307q-55 -129 -55 -271 q0 -105 31 -207q28 -93 88 -182q120 -176 307 -252q122 -55 270 -55q103 0 191 27q86 22 172 73q22 14 46.5 8.5t37.5 -28.5q13 -22 7 -46t-28 -38q-98 -59 -201 -88q-112 -31 -225 -31q-68 0 -157 14l-189 -227q-17 -20 -42.5 -22.5t-45.5 14.5q-19 15 -21 40.5t13 45.5 l155 186q-90 34 -172 88q-201 137 -297 361q-63 151 -63 319z" />
<glyph unicode="&#xe8;" horiz-adv-x="1056" d="M2 399q1 20 13.5 34.5t31.5 19.5l531 139l-531 137q-20 4 -32.5 20.5t-12.5 38.5t12.5 39t32.5 21l531 137l-531 137q-42 13 -45 56q-3 42 35 59l758 365q23 11 47.5 2.5t34.5 -31.5q11 -23 2.5 -47.5t-31.5 -34.5l-606 -291l596 -156q20 -4 32.5 -20.5t12.5 -38.5 q0 -20 -12.5 -36.5t-32.5 -22.5l-531 -138l531 -137q20 -6 32.5 -22.5t12.5 -36.5q0 -22 -12.5 -39t-32.5 -21l-596 -155l606 -291q23 -10 31.5 -34.5t-2.5 -47.5q-10 -23 -34.5 -31.5t-47.5 2.5l-758 363q-38 20 -35 61zM300 1955q0 25 19 44t44.5 19t42.5 -19l165 -166 q19 -19 19 -44t-19 -44q-17 -17 -42 -17t-44 17l-166 168q-19 17 -19 42z" />
<glyph unicode="&#xe9;" horiz-adv-x="1056" d="M2 399q1 20 13.5 34.5t31.5 19.5l531 139l-531 137q-20 4 -32.5 20.5t-12.5 38.5t12.5 39t32.5 21l531 137l-531 137q-42 13 -45 56q-3 42 35 59l758 365q23 11 47.5 2.5t34.5 -31.5q11 -23 2.5 -47.5t-31.5 -34.5l-606 -291l596 -156q20 -4 32.5 -20.5t12.5 -38.5 q0 -20 -12.5 -36.5t-32.5 -22.5l-531 -138l531 -137q20 -6 32.5 -22.5t12.5 -36.5q0 -22 -12.5 -39t-32.5 -21l-596 -155l606 -291q23 -10 31.5 -34.5t-2.5 -47.5q-10 -23 -34.5 -31.5t-47.5 2.5l-758 363q-38 20 -35 61zM294 1820q0 25 19 44l166 166q19 19 44 19t42 -19 q19 -19 19 -44t-19 -42l-166 -168q-17 -17 -42 -17t-44 17q-19 19 -19 44z" />
<glyph unicode="&#xea;" horiz-adv-x="1056" d="M2 399q1 20 13.5 34.5t31.5 19.5l531 139l-531 137q-20 4 -32.5 20.5t-12.5 38.5t12.5 39t32.5 21l531 137l-531 137q-42 13 -45 56q-3 42 35 59l758 365q23 11 47.5 2.5t34.5 -31.5q11 -23 2.5 -47.5t-31.5 -34.5l-606 -291l596 -156q20 -4 32.5 -20.5t12.5 -38.5 q0 -20 -12.5 -36.5t-32.5 -22.5l-531 -138l531 -137q20 -6 32.5 -22.5t12.5 -36.5q0 -22 -12.5 -39t-32.5 -21l-596 -155l606 -291q23 -10 31.5 -34.5t-2.5 -47.5q-10 -23 -34.5 -31.5t-47.5 2.5l-758 363q-38 20 -35 61zM184.5 1825.5q2.5 25.5 22.5 42.5l196 166 q17 14 39 14t41 -14l197 -166q19 -17 21 -42.5t-15 -45.5q-15 -19 -40.5 -21t-45.5 15l-158 133l-157 -133q-19 -17 -44 -15t-42 21q-17 20 -14.5 45.5z" />
<glyph unicode="&#xeb;" horiz-adv-x="1056" d="M2 399q1 20 13.5 34.5t31.5 19.5l531 139l-531 137q-20 4 -32.5 20.5t-12.5 38.5t12.5 39t32.5 21l531 137l-531 137q-42 13 -45 56q-3 42 35 59l758 365q23 11 47.5 2.5t34.5 -31.5q11 -23 2.5 -47.5t-31.5 -34.5l-606 -291l596 -156q20 -4 32.5 -20.5t12.5 -38.5 q0 -20 -12.5 -36.5t-32.5 -22.5l-531 -138l531 -137q20 -6 32.5 -22.5t12.5 -36.5q0 -22 -12.5 -39t-32.5 -21l-596 -155l606 -291q23 -10 31.5 -34.5t-2.5 -47.5q-10 -23 -34.5 -31.5t-47.5 2.5l-758 363q-38 20 -35 61zM86 1958q0 11 4 27q3 12 12 24q12 21 39 31 q13 8 35 8q11 0 27 -4q12 -3 24 -12q19 -11 33 -39q6 -15 6 -35q0 -11 -4 -27q-3 -12 -12 -24q-11 -19 -39 -33q-15 -6 -35 -6q-10 0 -26 4q-10 2 -25 10q-19 14 -33 41q-6 15 -6 35zM618 1958q0 17 5 27q2 8 10 24q15 21 41 31q13 8 35 8q10 0 26 -4q15 -4 23 -12 q23 -13 33 -39q8 -20 8 -35q0 -11 -4 -27q-10 -20 -13 -24q-15 -21 -39 -33q-15 -6 -34 -6q-11 0 -27 4q-8 2 -25 10q-18 13 -32 41q-7 17 -7 35z" />
<glyph unicode="&#xec;" horiz-adv-x="462" d="M-1 1955q0 25 19 44t44 19t42 -19l166 -166q19 -19 19 -44t-19 -44q-17 -17 -42 -17t-44 17l-166 168q-19 17 -19 42zM82 31v1515q0 26 17.5 44t43.5 18t44 -18t18 -44v-1515q0 -26 -18 -44t-44 -18t-43.5 18t-17.5 44z" />
<glyph unicode="&#xed;" horiz-adv-x="462" d="M-1 1820q0 25 19 44l166 166q19 19 44 19t42 -19q19 -19 19 -44t-19 -42l-166 -168q-17 -17 -42 -17t-44 17q-19 19 -19 44zM84 31v1515q0 26 17.5 44t43.5 18t44 -18t18 -44v-1515q0 -26 -18 -44t-44 -18t-43.5 18t-17.5 44z" />
<glyph unicode="&#xee;" horiz-adv-x="694" d="M2 1825.5q3 25.5 23 42.5l196 166q17 14 39 14t41 -14l197 -166q19 -17 21 -42.5t-15 -45.5q-15 -19 -40.5 -21t-45.5 15l-158 133l-158 -133q-19 -17 -44 -15t-42 21q-17 20 -14 45.5zM203 31v1515q0 26 17.5 44t43.5 18t44 -18t18 -44v-1515q0 -26 -18 -44t-44 -18 t-43.5 18t-17.5 44z" />
<glyph unicode="&#xef;" horiz-adv-x="886" d="M0 1958q0 11 4 27q3 12 12 24q12 21 39 31q13 8 35 8q11 0 27 -4q12 -3 24 -12q19 -11 33 -39q6 -15 6 -35q0 -11 -4 -27q-3 -12 -12 -24q-11 -19 -39 -33q-15 -6 -35 -6q-11 0 -27 4q-8 2 -24 10q-19 14 -33 41q-6 15 -6 35zM297 31v1515q0 26 17.5 44t43.5 18t44 -18 t18 -44v-1515q0 -26 -18 -44t-44 -18t-43.5 18t-17.5 44zM532 1958q0 17 5 27q2 8 10 24q15 21 41 31q13 8 35 8q10 0 26 -4q15 -4 23 -12q23 -13 33 -39q8 -20 8 -35q0 -11 -4 -27q-10 -20 -13 -24q-15 -21 -39 -33q-15 -6 -34 -6q-11 0 -27 4q-8 2 -25 10q-18 13 -32 41 q-7 17 -7 35z" />
<glyph unicode="&#xf1;" d="M-31 31v1515q0 22 13.5 38.5t33.5 21.5q22 5 41.5 -4t28.5 -29l641 -1282v1255q0 26 17.5 44t43.5 18t44 -18t18 -44v-1515v-4v-2v-5h-2v-6q0 -2 -2 -4q0 -2 -2 -4v-2q0 -2 -2 -2v-2q0 -2 -2 -2q0 -2 -2 -2v-2l-2 -2v-2q-1 0 -2.5 -1t-2.5 -1v-2q-2 0 -4 -2l-2 -2l-2 -2 q-2 0 -2 -3h-4v-2q-4 0 -4 -2q-4 0 -6 -2h-4q-2 0 -2 -2h-2h-2h-11h-755q-27 0 -43 19q-19 16 -19 43zM92 92h596l-596 1194v-1194zM145 1864q0 30 13 63q10 33 32 58q5 5 35 30q18 13 49 23q32 8 52 8q40 0 84 -23q41 -18 65 -59l37 -53q7 -10 18 -17q12 -6 27 -6 q12 0 16 2q3 1 8.5 3t8.5 3q2 2 5 5.5t5 5.5q1 2 4 6t4 6q6 12 6 27q0 8 -4 20q-8 25 3.5 48t35.5 30q23 9 46 -1.5t32 -35.5q10 -33 10 -61q0 -34 -12 -64q-8 -26 -33 -55q-18 -21 -35 -31q-19 -13 -47 -24q-31 -7 -53 -7q-43 0 -84 21q-42 24 -65 59q-1 1 -2.5 3t-2.5 3 l-28 45q-9 12 -23 19q-11 8 -26 8q-5 0 -17 -4q-8 0 -14 -6q-4 -2 -12 -10q-1 -1 -4 -5t-5 -6q-6 -12 -6 -28q0 -9 4 -21q9 -25 -1 -48t-33 -32q-25 -9 -48 1.5t-32 35.5q-13 32 -13 64zM225 2015z" />
<glyph unicode="&#xf2;" horiz-adv-x="1812" d="M0 788q0 129 37 244q39 118 102 215q137 201 361 297q153 64 319 64q129 0 244 -37q112 -36 215 -103q200 -138 297 -360q63 -151 63 -320q0 -131 -36 -243t-103 -215q-135 -200 -360 -297q-153 -64 -320 -64q-129 0 -244 37q-112 36 -215 103q-202 138 -297 360 q-63 151 -63 319zM123 788q0 -104 31 -206q29 -95 88 -183q120 -176 307 -252q122 -55 270 -55q105 0 207 31q93 28 182 88q176 120 252 307q56 124 56 270q0 105 -31 207q-29 95 -88 183q-118 172 -307 252q-129 55 -271 55q-105 0 -207 -31q-93 -28 -182 -88 q-172 -118 -252 -307q-55 -129 -55 -271zM673 1955q0 25 19 44t44 19t42 -19l166 -166q19 -19 19 -44t-19 -44q-17 -17 -42 -17t-44 17l-166 168q-19 17 -19 42z" />
<glyph unicode="&#xf3;" horiz-adv-x="1812" d="M0 788q0 129 37 244q39 118 102 215q137 201 361 297q153 64 319 64q129 0 244 -37q112 -36 215 -103q200 -138 297 -360q63 -151 63 -320q0 -131 -36 -243t-103 -215q-135 -200 -360 -297q-153 -64 -320 -64q-129 0 -244 37q-112 36 -215 103q-202 138 -297 360 q-63 151 -63 319zM123 788q0 -104 31 -206q29 -95 88 -183q120 -176 307 -252q122 -55 270 -55q105 0 207 31q93 28 182 88q176 120 252 307q56 124 56 270q0 105 -31 207q-29 95 -88 183q-118 172 -307 252q-129 55 -271 55q-105 0 -207 -31q-93 -28 -182 -88 q-172 -118 -252 -307q-55 -129 -55 -271zM671 1820q0 25 19 44l166 166q19 19 44 19t42 -19q19 -19 19 -44t-19 -42l-166 -168q-17 -17 -42 -17t-44 17q-19 19 -19 44z" />
<glyph unicode="&#xf4;" horiz-adv-x="1812" d="M0 788q0 129 37 244q39 118 102 215q137 201 361 297q153 64 319 64q129 0 244 -37q112 -36 215 -103q200 -138 297 -360q63 -151 63 -320q0 -131 -36 -243t-103 -215q-135 -200 -360 -297q-153 -64 -320 -64q-129 0 -244 37q-112 36 -215 103q-202 138 -297 360 q-63 151 -63 319zM123 788q0 -104 31 -206q29 -95 88 -183q120 -176 307 -252q122 -55 270 -55q105 0 207 31q93 28 182 88q176 120 252 307q56 124 56 270q0 105 -31 207q-29 95 -88 183q-118 172 -307 252q-129 55 -271 55q-105 0 -207 -31q-93 -28 -182 -88 q-172 -118 -252 -307q-55 -129 -55 -271zM559 1825.5q3 25.5 23 42.5l196 166q17 14 39 14t41 -14l197 -166q19 -17 21 -42.5t-15 -45.5q-15 -19 -40.5 -21t-45.5 15l-158 133l-158 -133q-19 -17 -44 -15t-42 21q-17 20 -14 45.5z" />
<glyph unicode="&#xf5;" horiz-adv-x="1812" d="M0 788q0 129 37 244q39 118 102 215q137 201 361 297q153 64 319 64q129 0 244 -37q112 -36 215 -103q200 -138 297 -360q63 -151 63 -320q0 -131 -36 -243t-103 -215q-135 -200 -360 -297q-153 -64 -320 -64q-129 0 -244 37q-112 36 -215 103q-202 138 -297 360 q-63 151 -63 319zM123 788q0 -104 31 -206q29 -95 88 -183q120 -176 307 -252q122 -55 270 -55q105 0 207 31q93 28 182 88q176 120 252 307q56 124 56 270q0 105 -31 207q-29 95 -88 183q-118 172 -307 252q-129 55 -271 55q-105 0 -207 -31q-93 -28 -182 -88 q-172 -118 -252 -307q-55 -129 -55 -271zM524 1864q0 30 13 63q10 33 32 58q5 5 35 30q18 13 49 23q32 8 52 8q39 0 83 -23q42 -19 66 -59l37 -53q7 -10 18 -17q12 -6 27 -6q12 0 16 2q3 1 8.5 3t8.5 3q2 2 5 5.5t5 5.5q1 2 4 6t4 6q6 12 6 27q0 8 -4 20q-8 25 3.5 48 t35.5 30q23 9 46 -1.5t32 -35.5q10 -33 10 -61q0 -34 -12 -64q-8 -26 -33 -55q-17 -21 -35 -31q-19 -13 -47 -24q-31 -7 -53 -7q-44 0 -84 21q-44 25 -66 59q-1 1 -2 3t-2 3l-28 45q-9 12 -23 19q-11 8 -26 8q-5 0 -17 -4q-8 0 -14 -6q-4 -2 -12 -10q-1 -1 -4 -5t-5 -6 q-6 -12 -6 -28q0 -9 4 -21q9 -25 -1.5 -48t-33.5 -32q-25 -9 -47.5 1.5t-31.5 35.5q-13 32 -13 64zM604 2015z" />
<glyph unicode="&#xf6;" horiz-adv-x="1812" d="M0 788q0 129 37 244q39 118 102 215q137 201 361 297q153 64 319 64q129 0 244 -37q112 -36 215 -103q200 -138 297 -360q63 -151 63 -320q0 -131 -36 -243t-103 -215q-135 -200 -360 -297q-153 -64 -320 -64q-129 0 -244 37q-112 36 -215 103q-202 138 -297 360 q-63 151 -63 319zM123 788q0 -104 31 -206q29 -95 88 -183q120 -176 307 -252q122 -55 270 -55q105 0 207 31q93 28 182 88q176 120 252 307q56 124 56 270q0 105 -31 207q-29 95 -88 183q-118 172 -307 252q-129 55 -271 55q-105 0 -207 -31q-93 -28 -182 -88 q-172 -118 -252 -307q-55 -129 -55 -271zM463 1958q0 11 4 27q3 12 12 24q12 21 39 31q13 8 35 8q11 0 27 -4q12 -3 24 -12q19 -11 33 -39q6 -15 6 -35q0 -11 -4 -27q-3 -12 -12 -24q-11 -19 -39 -33q-15 -6 -35 -6q-11 0 -27 4q-8 2 -24 10q-19 14 -33 41q-6 15 -6 35z M995 1958q0 19 4 27q1 4 11 24q15 21 41 31q13 8 34 8q11 0 27 -4q15 -4 23 -12q22 -13 32 -39q9 -23 9 -35q0 -7 -5 -27l-12 -24q-15 -21 -39 -33q-15 -6 -35 -6q-10 0 -26 4q-8 2 -25 10q-19 14 -33 41q-6 15 -6 35z" />
<glyph unicode="&#xf7;" d="M0 819q0 26 18 44t43 18h758q26 0 44 -18t18 -44t-18 -43.5t-44 -17.5h-758q-25 0 -43 17.5t-18 43.5zM350 553q0 11 4 27q2 4 6.5 12t6.5 12q15 21 39 33q18 6 34 6q9 0 29 -4q13 -3 23 -10q23 -16 32 -41q6 -15 6 -35q0 -19 -4 -27q-2 -8 -10 -24q-16 -22 -39 -31 q-16 -8 -37 -8q-6 0 -26 4q-15 4 -23 12q-23 13 -33 39q-8 20 -8 35zM350 1085q0 11 4 27q7 14 13 23q17 24 39 32q18 9 34 9q4 0 29 -5q15 -4 23 -12q22 -13 32 -39q6 -15 6 -35q0 -18 -4 -26q-2 -10 -10 -25q-15 -21 -39 -33q-18 -6 -37 -6q-6 0 -26 4q-10 3 -23 11 q-24 17 -33 41q-8 20 -8 34z" />
<glyph unicode="&#xf9;" d="M0 391v2v17v6v366v13v751q0 26 18 44t43 18q26 0 44 -18t18 -44v-608l653 651q26 29 66 15q39 -16 39 -58v-1136q0 -70 -21 -131q-19 -64 -55 -115q-71 -108 -193 -160q-81 -35 -172 -35q-70 0 -131 21q-63 18 -114 55q-108 71 -160 193q-32 76 -35 153zM123 395 q3 -47 14 -80q8 -32 39 -84q54 -76 141 -114q58 -25 123 -25q54 0 95 14q30 8 83 39q77 55 115 142q25 58 25 123v989l-635 -635v-369zM294 1955q0 25 19 44t44 19t42 -19l166 -166q19 -19 19 -44t-19 -44q-17 -17 -42 -17t-44 17l-166 168q-19 17 -19 42z" />
<glyph unicode="&#xfa;" d="M0 391v2v17v6v366v13v751q0 26 18 44t43 18q26 0 44 -18t18 -44v-608l653 651q26 29 66 15q39 -16 39 -58v-1136q0 -70 -21 -131q-19 -64 -55 -115q-71 -108 -193 -160q-81 -35 -172 -35q-70 0 -131 21q-63 18 -114 55q-108 71 -160 193q-32 76 -35 153zM123 395 q3 -47 14 -80q8 -32 39 -84q54 -76 141 -114q58 -25 123 -25q54 0 95 14q30 8 83 39q77 55 115 142q25 58 25 123v989l-635 -635v-369zM294 1820q0 25 19 44l166 166q19 19 44 19t42 -19q19 -19 19 -44t-19 -42l-166 -168q-17 -17 -42 -17t-44 17q-19 19 -19 44z" />
<glyph unicode="&#xfb;" d="M0 391v2v17v6v366v13v751q0 26 18 44t43 18q26 0 44 -18t18 -44v-608l653 651q26 29 66 15q39 -16 39 -58v-1136q0 -70 -21 -131q-19 -64 -55 -115q-71 -108 -193 -160q-81 -35 -172 -35q-70 0 -131 21q-63 18 -114 55q-108 71 -160 193q-32 76 -35 153zM123 395 q3 -47 14 -80q8 -32 39 -84q54 -76 141 -114q58 -25 123 -25q54 0 95 14q30 8 83 39q77 55 115 142q25 58 25 123v989l-635 -635v-369zM180.5 1825.5q2.5 25.5 22.5 42.5l196 166q17 14 39 14t41 -14l197 -166q19 -17 21 -42.5t-15 -45.5q-15 -19 -40.5 -21t-45.5 15 l-158 133l-157 -133q-19 -17 -44 -15t-42 21q-17 20 -14.5 45.5z" />
<glyph unicode="&#xfc;" horiz-adv-x="882" d="M0 391v2v17v6v366v13v751q0 26 18 44t43 18q26 0 44 -18t18 -44v-608l653 651q26 29 66 15q39 -16 39 -58v-1136q0 -70 -21 -131q-19 -64 -55 -115q-71 -108 -193 -160q-81 -35 -172 -35q-70 0 -131 21q-63 18 -114 55q-108 71 -160 193q-32 76 -35 153zM82 1958 q0 11 4 27q3 12 12 24q12 21 39 31q13 8 35 8q11 0 27 -4q12 -3 24 -12q19 -11 33 -39q6 -15 6 -35q0 -11 -4 -27q-3 -12 -12 -24q-11 -19 -39 -33q-15 -6 -35 -6q-11 0 -27 4q-8 2 -24 10q-19 14 -33 41q-6 15 -6 35zM123 395q3 -47 14 -80q8 -32 39 -84q54 -76 141 -114 q58 -25 123 -25q54 0 95 14q30 8 83 39q77 55 115 142q25 58 25 123v989l-635 -635v-369zM614 1958q0 19 4 27q1 4 11 24q15 21 41 31q13 8 35 8q10 0 26 -4q15 -4 23 -12q22 -13 32 -39q9 -23 9 -35q0 -11 -4 -27q-10 -20 -13 -24q-15 -21 -39 -33q-15 -6 -34 -6 q-11 0 -27 4q-8 2 -25 10q-18 13 -32 41q-7 17 -7 35z" />
<glyph unicode="&#xfd;" horiz-adv-x="1056" d="M8 1573q15 35 55 35h758q30 0 49 -25q17 -24 11 -53l-396 -1516q-6 -25 -27 -37t-46 -6t-38 28t-7 48l190 729l-543 733q-23 30 -6 64zM186 1485l410 -557l145 557h-555zM296 1820q0 25 19 44l166 166q19 19 44 19t42 -19q19 -19 19 -44t-19 -42l-166 -168 q-17 -17 -42 -17t-44 17q-19 19 -19 44z" />
<glyph unicode="&#xff;" horiz-adv-x="888" d="M8 1604q15 34 55 34h758q31 0 49 -24q17 -24 11 -53l-396 -1516q-6 -25 -27 -37t-46 -6t-38 28t-7 48l190 729l-543 733q-23 30 -6 64zM88 1958q0 11 4 27q3 12 12 24q12 21 39 31q13 8 35 8q11 0 27 -4q12 -3 24 -12q19 -11 33 -39q6 -15 6 -35q0 -11 -4 -27 q-3 -12 -12 -24q-11 -19 -39 -33q-15 -6 -35 -6q-10 0 -26 4q-10 2 -25 10q-19 14 -33 41q-6 15 -6 35zM186 1516l410 -558l145 558h-555zM621 1958q0 19 4 27q2 8 10 24q15 21 41 31q13 8 35 8q10 0 26 -4q15 -4 23 -12q23 -13 33 -39q8 -20 8 -35q0 -11 -4 -27 q-10 -20 -13 -24q-15 -21 -39 -33q-15 -6 -34 -6q-11 0 -27 4q-8 2 -25 10q-18 13 -32 41q-6 15 -6 35z" />
<glyph unicode="&#x178;" horiz-adv-x="890" d="M8 1604q15 34 55 34h758q31 0 49 -24q17 -24 11 -53l-396 -1516q-6 -25 -27 -37t-46 -6t-38 28t-7 48l190 729l-543 733q-23 30 -6 64zM88 1958q0 11 4 27q3 12 12 24q12 21 39 31q13 8 35 8q11 0 27 -4q12 -3 24 -12q19 -11 33 -39q6 -15 6 -35q0 -11 -4 -27 q-3 -12 -12 -24q-11 -19 -39 -33q-15 -6 -35 -6q-10 0 -26 4q-10 2 -25 10q-19 14 -33 41q-6 15 -6 35zM186 1516l410 -558l145 558h-555zM621 1958q0 19 4 27q2 8 10 24q15 21 41 31q13 8 35 8q10 0 26 -4q15 -4 23 -12q23 -13 33 -39q8 -20 8 -35q0 -11 -4 -27 q-10 -20 -13 -24q-15 -21 -39 -33q-15 -6 -34 -6q-11 0 -27 4q-8 2 -25 10q-18 13 -32 41q-6 15 -6 35z" />
<glyph unicode="&#x2c6;" horiz-adv-x="694" d="M2 1415.5q3 25.5 23 42.5l196 166q17 14 39 14t41 -14l197 -166q19 -17 21 -42.5t-15 -45.5q-15 -19 -40.5 -21t-45.5 15l-158 133l-158 -133q-19 -17 -44 -15t-42 21q-17 20 -14 45.5z" />
<glyph unicode="&#x2dc;" horiz-adv-x="765" d="M0 1454q0 34 12 64q9 29 33 57q11 11 35 31q15 11 49 22q32 8 51 8q42 0 84 -22q41 -18 66 -60l37 -53q6 -8 18 -16q12 -6 27 -6q12 0 16 2q3 1 8 3t8 3q2 2 5.5 5t5.5 5q1 2 4 6t4 6q6 12 6 27q0 8 -4 20q-8 25 3.5 48t35.5 30q23 9 46 -1.5t32 -35.5q10 -33 10 -61 q0 -33 -12 -63q-8 -28 -33 -56q-17 -21 -35 -31q-19 -13 -47 -24q-27 -6 -53 -6q-45 0 -84 20q-43 24 -66 60q-1 1 -2 3t-2 3l-29 45q-8 11 -22 18q-11 8 -27 8q-4 0 -16 -4q-8 0 -14 -6q-6 -3 -13 -10q-1 -1 -3.5 -4.5t-4.5 -5.5q-6 -12 -6 -29q0 -8 4 -20q9 -25 -1.5 -48 t-33.5 -32q-25 -9 -48 1.5t-32 35.5q-12 30 -12 63zM80 1606z" />
<glyph unicode="&#x2000;" horiz-adv-x="1024" />
<glyph unicode="&#x2001;" horiz-adv-x="2049" />
<glyph unicode="&#x2002;" horiz-adv-x="1024" />
<glyph unicode="&#x2003;" horiz-adv-x="2049" />
<glyph unicode="&#x2004;" horiz-adv-x="683" />
<glyph unicode="&#x2005;" horiz-adv-x="512" />
<glyph unicode="&#x2006;" horiz-adv-x="341" />
<glyph unicode="&#x2007;" horiz-adv-x="341" />
<glyph unicode="&#x2008;" horiz-adv-x="256" />
<glyph unicode="&#x2009;" horiz-adv-x="409" />
<glyph unicode="&#x200a;" horiz-adv-x="113" />
<glyph unicode="&#x2010;" horiz-adv-x="659" d="M0 788q0 26 17.5 44t43.5 18h363q26 0 43.5 -18t17.5 -44t-17.5 -43.5t-43.5 -17.5h-363q-26 0 -43.5 17.5t-17.5 43.5z" />
<glyph unicode="&#x2011;" horiz-adv-x="659" d="M0 788q0 26 17.5 44t43.5 18h363q26 0 43.5 -18t17.5 -44t-17.5 -43.5t-43.5 -17.5h-363q-26 0 -43.5 17.5t-17.5 43.5z" />
<glyph unicode="&#x2012;" horiz-adv-x="659" d="M0 788q0 26 17.5 44t43.5 18h363q26 0 43.5 -18t17.5 -44t-17.5 -43.5t-43.5 -17.5h-363q-26 0 -43.5 17.5t-17.5 43.5z" />
<glyph unicode="&#x2013;" d="M0 819q0 26 17.5 44t43.5 18h758q26 0 44 -18t18 -44t-18 -43.5t-44 -17.5h-758q-26 0 -43.5 17.5t-17.5 43.5z" />
<glyph unicode="&#x2014;" horiz-adv-x="1447" d="M0 819q0 26 17.5 44t43.5 18h1151q26 0 44 -18t18 -44t-18 -43.5t-44 -17.5h-1151q-26 0 -43.5 17.5t-17.5 43.5z" />
<glyph unicode="&#x2018;" horiz-adv-x="464" d="M5 1598q9 23 32 34t47.5 2t34.5 -32l166 -363q10 -23 1 -47t-32 -35q-23 -10 -47 -1t-35 32l-166 362q-10 25 -1 48z" />
<glyph unicode="&#x2019;" horiz-adv-x="464" d="M5 1192q-9 24 1 47l166 363q10 23 34.5 32t47.5 -2t32 -34t-1 -48l-166 -362q-11 -23 -35 -32t-47 1q-23 11 -32 35z" />
<glyph unicode="&#x201a;" horiz-adv-x="464" d="M5 42q-9 23 1 46l166 365q10 23 34.5 32t47.5 -2t32 -35t-1 -47l-166 -364q-10 -23 -34.5 -31.5t-47.5 2.5t-32 34z" />
<glyph unicode="&#x201c;" horiz-adv-x="657" d="M5 1598q9 23 32 34t47.5 2t34.5 -32l166 -363q10 -23 1 -47t-32 -35q-23 -10 -47 -1t-35 32l-166 362q-10 25 -1 48zM197.5 1598q8.5 23 31.5 34t47.5 2t34.5 -32l166 -363q10 -23 1 -47t-32 -35q-23 -10 -46.5 -1t-34.5 32l-166 362q-10 25 -1.5 48z" />
<glyph unicode="&#x201d;" horiz-adv-x="657" d="M5 1192q-9 24 1 47l166 363q10 23 34.5 32t47.5 -2t32 -34t-1 -48l-166 -362q-11 -23 -35 -32t-47 1q-23 11 -32 35zM197 1191.5q-9 24.5 2 47.5l166 363q10 23 34 32t47 -2t32 -34t-1 -48l-166 -362q-11 -23 -35 -32t-47 1t-32 34.5z" />
<glyph unicode="&#x201e;" horiz-adv-x="657" d="M5 42q-9 23 1 46l166 365q10 23 34.5 32t47.5 -2t32 -35t-1 -47l-166 -364q-10 -23 -34.5 -31.5t-47.5 2.5t-32 34zM197 41.5q-9 23.5 2 46.5l166 365q10 23 34 32t47 -2t32 -35t-1 -47l-166 -364q-10 -23 -34.5 -31.5t-47.5 2.5q-23 10 -32 33.5z" />
<glyph unicode="&#x2022;" horiz-adv-x="493" d="M0 819q0 28 8 47q4 17 19 43q29 41 71 58q27 12 62 12q26 0 47 -6q26 -10 43 -21q39 -28 57 -71q12 -27 12 -62q0 -26 -6 -47q-11 -30 -20 -43q-29 -40 -70 -57q-32 -13 -63 -13q-22 0 -47 7q-32 14 -43 20q-42 30 -58 72q-12 27 -12 61z" />
<glyph unicode="&#x2026;" horiz-adv-x="802" d="M0 90q0 11 4 27l12 24q16 22 39 31q16 8 35 8q9 0 29 -4q13 -3 22 -12q23 -13 33 -39q6 -15 6 -35q0 -19 -4 -27q-2 -8 -10 -24q-15 -21 -39 -33q-18 -6 -37 -6q-7 0 -27 4q-11 3 -22 10q-24 17 -33 41q-8 20 -8 35zM225 90q0 19 4 27q1 4 11 24q15 21 39 31q16 8 36 8 q11 0 27 -4q15 -4 23 -12q22 -13 32 -39q9 -23 9 -35q0 -7 -5 -27l-12 -24q-15 -21 -39 -33q-18 -6 -35 -6q-10 0 -26 4q-8 2 -25 10q-24 17 -33 41q-6 15 -6 35zM449 90q0 19 4 27q2 8 10 24q15 21 41 31q13 8 35 8q10 0 26 -4q15 -4 23 -12q23 -13 33 -39q8 -20 8 -35 q0 -11 -4 -27q-10 -20 -13 -24q-15 -21 -39 -33q-15 -6 -34 -6q-11 0 -27 4q-8 2 -25 10q-18 13 -32 41q-6 15 -6 35z" />
<glyph unicode="&#x202f;" horiz-adv-x="409" />
<glyph unicode="&#x205f;" horiz-adv-x="512" />
<glyph unicode="&#x20ac;" horiz-adv-x="1253" d="M0 623q0 25 17.5 43t43.5 18h123q-12 64 -12 135t12 135h-123q-26 0 -43.5 18.5t-17.5 43.5q0 26 17.5 43.5t43.5 17.5h154q39 111 102 201q141 201 373 297q154 63 328 63q26 0 43.5 -17.5t17.5 -43.5t-17.5 -43.5t-43.5 -17.5q-110 0 -215 -31q-98 -29 -189 -88 q-182 -118 -262 -307q-1 -2 -3 -6.5t-3 -6.5h475q26 0 44 -17.5t18 -43.5q0 -25 -18 -43.5t-44 -18.5h-512q-14 -60 -14 -135t14 -135h512q26 0 44 -18t18 -43q0 -26 -18 -44t-44 -18h-475q31 -73 72 -131q121 -172 319 -252q135 -55 281 -55q26 0 43.5 -18t17.5 -44 t-17.5 -43.5t-43.5 -17.5q-132 0 -250 37q-109 31 -221 102q-211 138 -307 361q-3 6 -25 61h-154q-26 0 -43.5 18t-17.5 44z" />
<glyph unicode="&#x25fc;" horiz-adv-x="1607" d="M0 0v1608h1608v-1608h-1608z" />
</font>
</defs>
</svg>
